<svg xmlns="http://www.w3.org/2000/svg" version="1.1" xmlns:xlink="http://www.w3.org/1999/xlink" xmlns:svgjs="http://svgjs.com/svgjs" width="512" height="512" x="0" y="0" viewBox="0 0 32 32" style="enable-background:new 0 0 512 512" xml:space="preserve" class=""><g><g xmlns="http://www.w3.org/2000/svg" id="Layer_1"><g fill="rgb(0,0,0)"><path d="m30 29v-15.837c0-1.193-.97-2.163-2.163-2.163h-5.837v-7.264c0-.086-.019-1.167-.959-1.797-.94-.629-1.947-.235-2.027-.203l-14.675 6.043c-.813.335-1.339 1.119-1.339 2v19.221h-1c-.552 0-1 .448-1 1s.448 1 1 1h2 17 8 1c.552 0 1-.448 1-1s-.448-1-1-1zm-25-19.221c0-.066.04-.125.101-.15l14.675-6.042c.055-.022.105-.017.152.015.048.031.072.076.072.134v8.264 17h-15zm17 19.221v-16h5.837c.09 0 .163.073.163.163v15.837z" fill="#000000" data-original="#000000" class=""></path><path d="m15 24h-5c-.552 0-1 .448-1 1s.448 1 1 1h5c.552 0 1-.448 1-1s-.448-1-1-1z" fill="#000000" data-original="#000000" class=""></path><path d="m15 20h-5c-.552 0-1 .448-1 1s.448 1 1 1h5c.552 0 1-.448 1-1s-.448-1-1-1z" fill="#000000" data-original="#000000" class=""></path><path d="m15 16h-5c-.552 0-1 .448-1 1s.448 1 1 1h5c.552 0 1-.448 1-1s-.448-1-1-1z" fill="#000000" data-original="#000000" class=""></path><path d="m15 12h-5c-.552 0-1 .448-1 1s.448 1 1 1h5c.552 0 1-.448 1-1s-.448-1-1-1z" fill="#000000" data-original="#000000" class=""></path></g></g></g></svg>