<svg width="271" height="271" viewBox="0 0 271 271" fill="none" xmlns="http://www.w3.org/2000/svg">
<path opacity="0.3" d="M237.608 232.183C230.577 239.473 224.286 243.758 219.47 246.993C172.497 278.544 118.801 269.447 102.199 266.342C75.4156 261.327 52.8061 257.789 33.3797 240.135C-10.7616 200.018 -8.61466 116.333 25.1108 64.4925C29.1101 58.3454 62.7882 8.12854 116.601 1.05237C117.917 0.878536 118.899 0.780028 119.759 0.68828C128.087 -0.194429 179.673 -4.87742 221.741 30.572C227.762 35.6471 237.452 44.7996 246.437 58.7597C279.288 109.806 279.397 188.858 237.608 232.183Z" fill="url(#paint0_linear_738_3481)"/>
<g opacity="0.45">
<path opacity="0.45" d="M220.994 128.869C220.994 128.869 249.641 95.2028 248.224 53.0182C246.993 16.3394 224.761 22.2625 235.683 38.3627C238.903 43.1085 244.792 48.0049 245.382 53.2519C248.038 76.9045 238.115 103.625 220.994 128.869Z" fill="url(#paint1_linear_738_3481)"/>
<path opacity="0.45" d="M218.402 134.945C218.402 134.945 239.015 99.2262 233.743 60.8979C229.16 27.5732 211.204 36.8194 221.869 49.6593C225.013 53.4441 230.396 56.9025 231.397 61.6029C235.904 82.7715 230.224 108.915 218.402 134.945Z" fill="url(#paint2_linear_738_3481)"/>
<path opacity="0.45" d="M222.576 126.368C222.576 126.368 239.74 106.197 238.891 80.9231C238.158 58.949 224.83 62.4972 231.377 72.1414C233.309 74.9846 236.835 77.9186 237.187 81.0621C238.78 95.2347 232.834 111.245 222.576 126.368Z" fill="url(#paint3_linear_738_3481)"/>
</g>
<path d="M106.708 220.402L101.309 257.659H163.946L155.787 220.402H106.708Z" fill="url(#paint4_linear_738_3481)"/>
<path d="M1.48828 101.105V212C1.48808 216.386 3.20138 220.6 6.26293 223.741C9.32447 226.883 13.4921 228.704 17.8773 228.817C58.3815 229.861 200.045 232.391 238.602 231.826C241.792 231.778 244.839 230.5 247.11 228.26C249.381 226.019 250.699 222.989 250.789 219.8C251.533 194.037 252.74 132.088 248.271 103.329C247.817 100.393 246.351 97.7089 244.127 95.7397C241.903 93.7706 239.061 92.6406 236.092 92.5451C202.154 91.4567 51.9814 88.0118 13.4416 88.8781C10.2465 88.9495 7.20635 90.2692 4.9722 92.5544C2.73805 94.8396 1.48748 97.9088 1.48828 101.105V101.105Z" fill="url(#paint5_linear_738_3481)"/>
<path d="M8.44727 100.565V205.922C8.44723 208.482 9.45413 210.939 11.2505 212.763C13.0468 214.586 15.4884 215.63 18.0479 215.669L233.056 218.324C234.311 218.343 235.556 218.113 236.721 217.647C237.886 217.181 238.947 216.488 239.842 215.609C240.738 214.731 241.45 213.683 241.938 212.527C242.425 211.371 242.679 210.13 242.684 208.875L243.043 104.459C243.05 102.643 242.345 100.898 241.08 99.5964C239.814 98.295 238.089 97.5415 236.274 97.4975L16.1463 93.055C15.1446 93.0306 14.148 93.2069 13.2154 93.5733C12.2827 93.9397 11.4327 94.4889 10.7154 95.1886C9.99804 95.8883 9.42785 96.7243 9.03834 97.6476C8.64884 98.5709 8.44787 99.5627 8.44727 100.565V100.565Z" fill="url(#paint6_linear_738_3481)"/>
<path opacity="0.65" d="M244.303 222.642H244.297L8.44213 218.624C8.36358 218.622 8.28901 218.589 8.23473 218.532C8.18044 218.475 8.15085 218.399 8.1524 218.321C8.15541 218.242 8.18874 218.168 8.24535 218.114C8.30195 218.06 8.37737 218.03 8.45565 218.031L244.311 222.049C244.387 222.054 244.459 222.087 244.511 222.142C244.563 222.198 244.592 222.271 244.592 222.347C244.592 222.424 244.563 222.497 244.511 222.552C244.459 222.608 244.387 222.641 244.311 222.645L244.303 222.642Z" fill="white"/>
<path opacity="0.65" d="M128.701 227.55C128.156 227.551 127.624 227.389 127.171 227.087C126.718 226.785 126.365 226.355 126.157 225.852C125.949 225.349 125.894 224.795 126 224.261C126.106 223.727 126.368 223.237 126.753 222.852C127.138 222.467 127.629 222.204 128.163 222.098C128.697 221.992 129.25 222.047 129.753 222.255C130.256 222.464 130.686 222.817 130.989 223.269C131.291 223.722 131.452 224.254 131.452 224.799C131.451 225.528 131.161 226.228 130.645 226.744C130.13 227.259 129.43 227.55 128.701 227.55ZM128.701 222.642C128.274 222.642 127.857 222.768 127.502 223.005C127.148 223.242 126.871 223.579 126.708 223.973C126.544 224.367 126.501 224.801 126.584 225.219C126.668 225.637 126.873 226.022 127.174 226.323C127.476 226.625 127.86 226.831 128.279 226.914C128.697 226.997 129.131 226.955 129.525 226.791C129.919 226.628 130.256 226.352 130.493 225.997C130.73 225.642 130.856 225.225 130.856 224.799C130.855 224.227 130.628 223.679 130.224 223.275C129.82 222.871 129.272 222.643 128.701 222.642V222.642Z" fill="white"/>
<path d="M177.438 267.566H85.7619C83.2712 267.566 81.4015 265.793 81.8824 263.888L83.0577 259.236C83.4112 257.838 84.9506 256.81 86.7788 256.753L175.156 253.996C177.065 253.936 178.756 254.95 179.173 256.404L181.297 263.814C181.849 265.739 179.969 267.566 177.438 267.566Z" fill="url(#paint7_linear_738_3481)"/>
<path d="M135.11 258.012C135.033 258.008 134.962 257.975 134.91 257.919C134.857 257.864 134.828 257.791 134.828 257.715C134.828 257.638 134.857 257.565 134.91 257.51C134.962 257.454 135.033 257.421 135.11 257.417L138.897 257.362C138.975 257.362 139.05 257.392 139.106 257.446C139.163 257.5 139.196 257.573 139.2 257.651C139.201 257.73 139.171 257.805 139.117 257.862C139.062 257.918 138.988 257.951 138.91 257.954L135.122 258.009L135.11 258.012Z" fill="white"/>
<path d="M85.2788 265.005C85.263 265.006 85.2472 265.006 85.2315 265.005C85.1534 264.992 85.0834 264.949 85.0371 264.885C84.9907 264.821 84.9717 264.741 84.9842 264.663L85.5251 261.283C85.6634 260.403 86.1084 259.6 86.7814 259.017C87.4545 258.434 88.3122 258.107 89.2027 258.096L129.37 257.508C129.446 257.513 129.517 257.546 129.57 257.601C129.622 257.657 129.651 257.73 129.651 257.806C129.651 257.883 129.622 257.956 129.57 258.011C129.517 258.067 129.446 258.1 129.37 258.104L89.2027 258.691C88.4529 258.701 87.7307 258.976 87.1637 259.467C86.5967 259.957 86.2216 260.633 86.1045 261.373L85.5647 264.754C85.5535 264.822 85.5189 264.885 85.4667 264.93C85.4146 264.976 85.3482 265.002 85.2788 265.005V265.005Z" fill="white"/>
<path d="M66.5605 104.958C66.5605 104.958 69.4501 119.755 70.5017 119.755C71.5533 119.755 91.0178 117.423 91.0178 117.423V113.206L75.6258 113.771L71.9116 102.775L66.5605 104.958Z" fill="url(#paint8_linear_738_3481)"/>
<path d="M62.9028 121.102H36.9453L38.5214 102.6C38.5214 102.6 36.5817 88.6616 45.4352 87.1257C50.6504 85.7069 50.6504 85.6899 50.6504 85.6899C50.6504 85.6899 57.3212 84.6374 62.9001 87.0998C68.479 89.5623 73.0858 104.356 73.0858 104.356L66.415 107.022L64.7174 101.631L62.9028 121.102Z" fill="url(#paint9_linear_738_3481)"/>
<path d="M51.9116 76.7962L49.2695 86.9426C49.2695 86.9426 54.7904 89.6078 59.4794 87.3L57.9989 77.4627L51.9116 76.7962Z" fill="url(#paint10_linear_738_3481)"/>
<path d="M64.3431 68.6057C64.3431 68.6057 64.7648 75.9653 63.723 79.3606C62.6812 82.7558 62.6026 85.1789 58.5087 84.4302C54.4147 83.6814 51.8808 80.5703 51.3474 76.6086C51.3474 76.6086 50.4807 70.4883 51.8683 68.6245C53.2559 66.7607 64.3431 68.6057 64.3431 68.6057Z" fill="url(#paint11_linear_738_3481)"/>
<path d="M53.5409 74.7072L53.7956 74.6912C53.8719 74.6867 53.9465 74.6667 54.0148 74.6324C54.0832 74.598 54.1438 74.5501 54.193 74.4916C54.2422 74.433 54.2789 74.3651 54.3009 74.2919C54.3229 74.2186 54.3297 74.1417 54.3209 74.0657C54.1655 72.8148 53.9939 70.0263 55.5665 69.97C57.5929 69.8967 65.091 71.0422 67.5087 69.1274C69.8318 67.2824 69.6826 63.7397 68.0788 62.1583C68.0282 62.1066 67.9597 62.0762 67.8875 62.0734C67.8152 62.0706 67.7446 62.0955 67.6901 62.1431L67.4176 62.3843C67.3763 62.4212 67.3249 62.4449 67.27 62.4525C67.2151 62.46 67.1592 62.4511 67.1095 62.4267C67.0597 62.4024 67.0183 62.3637 66.9906 62.3158C66.9629 62.2678 66.9501 62.2127 66.9539 62.1574C66.9584 62.1037 66.9471 62.0498 66.9215 62.0024C66.8958 61.955 66.8569 61.9161 66.8095 61.8905C66.7621 61.8649 66.7082 61.8537 66.6545 61.8583C66.6008 61.8628 66.5496 61.8829 66.5071 61.9161C65.7718 62.4853 64.0804 63.2251 60.5137 62.6104C55.4458 61.7357 51.5994 62.4987 50.3119 65.7492C50.294 65.7957 50.264 65.8366 50.225 65.8675C50.1859 65.8985 50.1393 65.9184 50.09 65.9253C50.0406 65.9321 49.9903 65.9256 49.9443 65.9064C49.8984 65.8872 49.8584 65.8561 49.8285 65.8162C49.5605 65.4731 49.0324 65.1666 48.0514 65.5196C46.3439 66.1352 45.8284 69.1748 47.8235 72.5665C47.8463 72.6035 47.8601 72.6453 47.8637 72.6887C47.8674 72.732 47.8608 72.7756 47.8446 72.8159C47.8283 72.8562 47.8028 72.8922 47.7702 72.9208C47.7375 72.9495 47.6985 72.9701 47.6565 72.981C47.014 73.1267 45.9463 73.644 47.5519 75.4515C49.2138 77.3207 50.7926 77.8005 51.4234 77.9211C51.4605 77.9282 51.4986 77.9277 51.5355 77.9196C51.5724 77.9114 51.6072 77.8958 51.6378 77.8738C51.6684 77.8517 51.6942 77.8235 51.7136 77.7911C51.7329 77.7587 51.7455 77.7227 51.7504 77.6852L52.1784 74.5687C52.1841 74.5275 52.199 74.488 52.222 74.4532C52.2449 74.4184 52.2754 74.3893 52.3112 74.3678C52.3469 74.3464 52.387 74.3333 52.4285 74.3294C52.47 74.3255 52.5118 74.331 52.551 74.3454L53.5409 74.7072Z" fill="url(#paint12_linear_738_3481)"/>
<path d="M53.4346 75.3595C53.4346 75.3595 53.8751 70.9225 51.6413 71.388C49.4076 71.8535 50.9096 76.2718 52.3132 76.9615L53.4346 75.3595Z" fill="url(#paint13_linear_738_3481)"/>
<path d="M58.9644 81.0036C54.2128 80.5569 52.3187 75.2353 52.3008 75.1808L52.6439 75.062C52.6626 75.1138 54.4827 80.2129 58.9983 80.6409L58.9644 81.0036Z" fill="url(#paint14_linear_738_3481)"/>
<path d="M60.597 80.1396H58.2498C58.1561 80.1396 58.0801 80.2156 58.0801 80.3094V81.1975C58.0801 81.2912 58.1561 81.3672 58.2498 81.3672H60.597C60.6908 81.3672 60.7668 81.2912 60.7668 81.1975V80.3094C60.7668 80.2156 60.6908 80.1396 60.597 80.1396Z" fill="#AAC600"/>
<path d="M53.4739 69.8896C53.4739 69.8896 56.4546 62.6881 61.2562 62.7203C61.2562 62.7203 60.0482 61.9019 58.5454 62.3468C57.0425 62.7918 52.8762 65.8689 52.2695 69.8896C53.1585 70.3506 53.4739 69.8896 53.4739 69.8896Z" fill="url(#paint15_linear_738_3481)"/>
<path d="M52.7588 69.2999C50.0909 69.3812 49.8478 72.6951 49.8478 72.6951C49.2564 75.0298 49.7451 76.3209 50.534 77.0321C50.7993 77.27 51.1216 77.4354 51.4696 77.5121C51.8175 77.5888 52.1795 77.5743 52.5202 77.4699C52.8609 77.3655 53.1689 77.1748 53.4142 76.9164C53.6595 76.6579 53.8339 76.3404 53.9203 75.9947C54.0785 75.3586 54.2384 74.7555 54.3233 74.5464C54.527 74.0398 55.4223 69.2195 52.7588 69.2999Z" fill="url(#paint16_linear_738_3481)"/>
<path d="M52.8498 70.1648C52.5978 70.0746 52.3229 70.0721 52.0693 70.1575C51.8157 70.2429 51.5983 70.4114 51.4524 70.6357C49.2991 73.9416 50.7921 76.588 51.7133 76.7962C52.6854 77.0151 53.4752 72.302 53.4752 71.0583C53.4752 70.5374 53.1848 70.2836 52.8498 70.1648Z" fill="url(#paint17_linear_738_3481)"/>
<path d="M88.1195 119.601L21.5238 120.151C21.2558 120.151 21.0038 120.731 20.9707 121.442L20.8689 123.629C20.8358 124.344 21.0315 124.923 21.3058 124.918L88.2491 123.955C88.4787 123.955 88.6476 123.419 88.6279 122.767L88.5672 120.772C88.5475 120.123 88.3465 119.599 88.1195 119.601Z" fill="url(#paint18_linear_738_3481)"/>
<path d="M65.3257 119.699H73.695C73.695 119.699 71.7945 115.616 68.318 115.819C64.8415 116.022 65.3257 119.699 65.3257 119.699Z" fill="url(#paint19_linear_738_3481)"/>
<path d="M42.5137 108.293L48.3356 105.613L53.4821 114.659C53.4821 114.659 68.0378 112.397 70.6289 115.146C73.22 117.896 72.0031 117.854 71.6796 117.854C71.3562 117.854 69.8605 116.237 69.8605 116.237C69.8605 116.237 71.1721 118.211 70.4672 118.299C69.7622 118.388 68.0378 116.52 68.0378 116.52C68.0378 116.52 69.4522 118.986 68.6034 118.704C67.7546 118.422 67.0675 117.087 67.0675 117.087C67.0675 117.087 68.1995 118.668 67.4311 118.726C66.6627 118.785 65.4896 117.423 65.4896 117.423C65.4896 117.423 63.691 118.238 62.6599 118.238C61.6288 118.238 51.2385 120.829 49.3586 119.757C47.4788 118.684 42.5137 108.293 42.5137 108.293Z" fill="url(#paint20_linear_738_3481)"/>
<path d="M48.3362 105.736C48.3106 105.736 48.2857 105.728 48.2649 105.713C48.2441 105.699 48.2285 105.677 48.2204 105.653C48.2123 105.629 48.212 105.603 48.2197 105.578C48.2273 105.554 48.2425 105.533 48.263 105.517L49.3351 104.713L45.8899 95.1752C45.8829 95.1599 45.8792 95.1434 45.8789 95.1266C45.8787 95.1098 45.8819 95.0931 45.8884 95.0776C45.8949 95.0621 45.9046 95.0482 45.9168 95.0366C45.9289 95.0251 45.9434 95.0161 45.9592 95.0104C45.975 95.0047 45.9918 95.0024 46.0085 95.0035C46.0253 95.0046 46.0416 95.0092 46.0565 95.017C46.0714 95.0247 46.0846 95.0355 46.0951 95.0486C46.1056 95.0617 46.1133 95.0768 46.1177 95.093L49.5943 104.715C49.6034 104.739 49.6043 104.766 49.5968 104.791C49.5894 104.815 49.5741 104.837 49.5532 104.853L48.4086 105.711C48.388 105.727 48.3625 105.736 48.3362 105.736V105.736Z" fill="url(#paint21_linear_738_3481)"/>
<path d="M41.9606 107.909C41.9407 107.909 41.9212 107.904 41.9036 107.895C41.886 107.886 41.8709 107.873 41.8596 107.856L38.9486 103.568C38.9328 103.541 38.9278 103.509 38.9346 103.479C38.9414 103.449 38.9595 103.422 38.9851 103.405C39.0108 103.388 39.0422 103.381 39.0727 103.386C39.1033 103.391 39.1308 103.407 39.1497 103.432L42.0606 107.721C42.0733 107.739 42.0806 107.76 42.082 107.782C42.0833 107.804 42.0786 107.826 42.0682 107.846C42.0579 107.865 42.0424 107.882 42.0234 107.893C42.0044 107.904 41.9827 107.91 41.9606 107.91V107.909Z" fill="url(#paint22_linear_738_3481)"/>
<path d="M8.6928 84.084L8.30649 90.2978C8.24277 91.312 8.49692 92.3208 9.03355 93.1837C9.57018 94.0466 10.3626 94.7207 11.3004 95.1121L15.8597 97.0118C16.4655 97.2671 17.0008 97.6648 17.4199 98.1713C17.8391 98.6777 18.1298 99.2778 18.2674 99.9207C18.9814 103.168 20.0643 106.322 21.495 109.323C21.7814 109.916 21.9202 110.569 21.8997 111.227C21.8792 111.885 21.6999 112.529 21.3772 113.102L18.9376 117.402C18.4353 118.286 18.2211 119.304 18.325 120.315C18.4289 121.326 18.8456 122.28 19.5171 123.043L23.6313 127.709C24.3037 128.471 25.1971 129.005 26.1871 129.235C27.1771 129.466 28.2144 129.382 29.1545 128.995L33.7264 127.113C34.3363 126.864 34.9974 126.766 35.6533 126.828C36.3091 126.89 36.9402 127.11 37.4929 127.468C40.2932 129.264 43.2899 130.733 46.4243 131.847C47.0448 132.064 47.6038 132.428 48.0537 132.907C48.5036 133.386 48.8312 133.967 49.0087 134.6L50.3231 139.362C50.5935 140.341 51.163 141.212 51.9522 141.853C52.7413 142.493 53.7106 142.872 54.725 142.935L60.933 143.321C61.9474 143.385 62.9565 143.131 63.8197 142.595C64.6829 142.058 65.3571 141.265 65.7483 140.327L67.6479 135.769C67.9027 135.163 68.3002 134.627 68.8065 134.208C69.3128 133.789 69.913 133.498 70.5559 133.36C73.8054 132.649 76.9627 131.568 79.9663 130.138C80.5592 129.853 81.2123 129.714 81.8702 129.735C82.5281 129.755 83.1714 129.934 83.7453 130.256L88.0459 132.695C88.9295 133.197 89.9479 133.411 90.9591 133.307C91.9702 133.204 92.9238 132.787 93.6869 132.115L98.3525 128.001C99.1148 127.329 99.6485 126.435 99.8791 125.445C100.11 124.455 100.026 123.418 99.6389 122.478L97.7566 117.907C97.5079 117.297 97.4103 116.636 97.4724 115.98C97.5344 115.324 97.7542 114.693 98.113 114.141C99.908 111.34 101.377 108.343 102.491 105.209C102.708 104.589 103.072 104.03 103.551 103.58C104.03 103.13 104.611 102.802 105.244 102.625L110.002 101.307C110.981 101.037 111.852 100.467 112.493 99.6783C113.133 98.8892 113.511 97.9199 113.575 96.9055L113.961 90.6966C114.026 89.6823 113.772 88.6733 113.235 87.8102C112.698 86.9472 111.905 86.2732 110.967 85.8823L106.408 83.9826C105.802 83.7275 105.266 83.3298 104.847 82.8234C104.428 82.3169 104.137 81.7167 103.999 81.0737C103.287 77.8244 102.204 74.6673 100.773 71.6643C100.487 71.0714 100.348 70.4182 100.369 69.7602C100.39 69.1023 100.569 68.459 100.892 67.8853L103.338 63.5876C103.84 62.7036 104.055 61.6849 103.951 60.6734C103.847 59.6619 103.43 58.708 102.758 57.9446L98.6442 53.279C97.9718 52.5166 97.0783 51.983 96.0882 51.7526C95.0982 51.5221 94.0609 51.6064 93.121 51.9936L88.55 53.8749C87.94 54.1236 87.279 54.2211 86.6231 54.1592C85.9673 54.0974 85.3362 53.8779 84.7835 53.5195C81.9832 51.7238 78.9866 50.2547 75.8521 49.1407C75.2316 48.9236 74.6726 48.5599 74.2227 48.0806C73.7727 47.6012 73.4452 47.0203 73.2677 46.3873L71.9504 41.628C71.6798 40.6484 71.1103 39.7776 70.3212 39.137C69.5321 38.4965 68.5628 38.1181 67.5485 38.0547L61.3396 37.6684C60.3253 37.6044 59.3164 37.8584 58.4534 38.3951C57.5904 38.9317 56.9164 39.7243 56.5252 40.6623L54.6256 45.2207C54.3704 45.8267 53.9728 46.3622 53.4663 46.7815C52.9599 47.2008 52.3596 47.4917 51.7167 47.6293C48.4676 48.342 45.3109 49.4246 42.3082 50.8559C41.7151 51.1418 41.0618 51.2804 40.4038 51.2599C39.7457 51.2394 39.1023 51.0604 38.5282 50.7381L34.2286 48.2986C33.3447 47.7965 32.3262 47.5827 31.3151 47.6869C30.3039 47.7911 29.3504 48.2082 28.5876 48.88L23.9219 52.9941C23.1595 53.6665 22.6259 54.56 22.3955 55.55C22.1651 56.5401 22.2493 57.5774 22.6365 58.5173L24.5188 63.0883C24.7671 63.6984 24.8643 64.3595 24.8023 65.0152C24.7402 65.671 24.5207 66.3021 24.1624 66.8548C22.3671 69.6553 20.898 72.6519 19.7836 75.7862C19.5665 76.4067 19.2028 76.9657 18.7235 77.4156C18.2441 77.8655 17.6633 78.1931 17.0302 78.3706L12.27 79.684C11.29 79.9539 10.4186 80.5229 9.77739 81.3117C9.13616 82.1004 8.75701 83.0696 8.6928 84.084V84.084ZM25.4208 84.5998C28.6841 64.8701 47.3109 51.5204 67.0376 54.7779C86.7643 58.0354 100.114 76.6689 96.8556 96.3956C93.5971 116.122 74.9646 129.471 55.2427 126.214C35.5208 122.956 22.1623 104.323 25.4208 84.5998Z" fill="url(#paint23_linear_738_3481)"/>
<path d="M88.8066 147.602H26.4075C25.2737 147.602 24.1911 148.161 23.4204 149.18C22.6497 150.198 22.2615 151.555 22.3426 152.946L23.4542 171.271C23.6164 173.95 25.4775 175.991 27.6669 175.894L88.9466 173.175C91.1399 173.078 92.8657 170.868 92.8657 168.177V152.561C92.8618 149.8 91.0578 147.602 88.8066 147.602Z" fill="url(#paint24_linear_738_3481)"/>
<path d="M33.9456 169.973L31.4423 168.893C31.3465 168.851 31.242 168.834 31.1378 168.842C31.0336 168.849 30.933 168.883 30.8445 168.938L28.5344 170.387C28.4325 170.451 28.3148 170.485 28.1944 170.486C28.0741 170.486 27.956 170.453 27.8536 170.39C27.7511 170.327 27.6684 170.236 27.6148 170.128C27.5612 170.021 27.5389 169.9 27.5503 169.78L27.8052 167.066C27.8152 166.962 27.7996 166.857 27.7599 166.76C27.7202 166.664 27.6575 166.578 27.5773 166.511L25.4855 164.758C25.3931 164.681 25.3242 164.58 25.2865 164.466C25.2487 164.352 25.2437 164.229 25.2719 164.112C25.3002 163.995 25.3606 163.889 25.4463 163.804C25.532 163.72 25.6395 163.661 25.7569 163.635L28.4185 163.038C28.5202 163.016 28.6149 162.969 28.6945 162.901C28.774 162.834 28.8361 162.748 28.8753 162.652L29.8923 160.122C29.9371 160.01 30.0122 159.913 30.1092 159.842C30.2062 159.771 30.3211 159.729 30.441 159.719C30.5609 159.71 30.681 159.735 30.7876 159.79C30.8942 159.846 30.9832 159.93 31.0444 160.034L32.4342 162.38C32.4873 162.469 32.5615 162.545 32.6503 162.6C32.7391 162.655 32.8399 162.687 32.9441 162.694L35.6646 162.88C35.7846 162.888 35.8999 162.929 35.9975 163C36.095 163.07 36.1711 163.166 36.2169 163.277C36.2627 163.388 36.2765 163.51 36.2567 163.628C36.237 163.747 36.1844 163.858 36.105 163.948L34.3029 165.994C34.2344 166.073 34.1859 166.166 34.1613 166.267C34.1368 166.368 34.137 166.473 34.1619 166.574L34.8254 169.218C34.8567 169.335 34.8543 169.459 34.8185 169.575C34.7827 169.69 34.7149 169.794 34.623 169.872C34.5311 169.951 34.4187 170.003 34.2988 170.021C34.179 170.038 34.0565 170.022 33.9456 169.973V169.973Z" fill="url(#paint25_linear_738_3481)"/>
<path d="M28.2509 166.355C28.1787 166.232 28.0855 166.123 27.9757 166.032L26.6101 164.89C26.5404 164.831 26.4884 164.754 26.46 164.668C26.4316 164.582 26.4279 164.489 26.4492 164.4C26.4706 164.312 26.5163 164.231 26.581 164.167C26.6458 164.104 26.7271 164.059 26.8158 164.039L28.5542 163.652C28.7546 163.607 28.9411 163.514 29.0976 163.381C29.254 163.247 29.3758 163.078 29.4523 162.888L30.1168 161.235C30.1513 161.152 30.2083 161.08 30.2814 161.027C30.3545 160.974 30.4409 160.942 30.5309 160.935C30.6209 160.928 30.7111 160.946 30.7915 160.987C30.8718 161.029 30.9391 161.091 30.986 161.169L31.4495 161.952L31.3308 162.022L30.8662 161.239C30.8329 161.183 30.7846 161.137 30.7267 161.107C30.6689 161.077 30.6038 161.064 30.5388 161.069C30.4738 161.074 30.4115 161.097 30.359 161.136C30.3064 161.174 30.2657 161.227 30.2414 161.287L29.5769 162.94C29.4922 163.151 29.3571 163.339 29.1835 163.487C29.0098 163.635 28.8028 163.738 28.5803 163.788L26.8419 164.174C26.7782 164.188 26.7198 164.22 26.6733 164.266C26.6267 164.311 26.5939 164.369 26.5786 164.433C26.5632 164.496 26.5659 164.563 26.5863 164.625C26.6067 164.687 26.6441 164.742 26.6941 164.783L28.0597 165.926C28.181 166.027 28.2842 166.148 28.3649 166.283L28.2509 166.355Z" fill="white"/>
<path d="M28.7461 169.43C28.6557 169.429 28.5672 169.404 28.4901 169.357C28.4121 169.31 28.3491 169.241 28.3084 169.16C28.2677 169.078 28.2511 168.986 28.2603 168.896L28.3878 167.544L28.5259 167.556L28.3955 168.911C28.3895 168.976 28.4017 169.041 28.4309 169.1C28.46 169.158 28.5049 169.207 28.5605 169.241C28.6161 169.275 28.6801 169.293 28.7453 169.293C28.8105 169.293 28.8743 169.274 28.9296 169.239L30.4381 168.293C30.6319 168.173 30.8516 168.102 31.0787 168.085C31.3058 168.068 31.5336 168.107 31.7428 168.196L33.3769 168.902C33.4368 168.928 33.5027 168.937 33.5672 168.927C33.6317 168.918 33.6922 168.89 33.742 168.848C33.7917 168.806 33.8287 168.751 33.8486 168.689C33.8686 168.626 33.8708 168.56 33.855 168.497L33.4213 166.769C33.3656 166.548 33.3645 166.317 33.4181 166.095C33.4718 165.874 33.5787 165.669 33.7294 165.498L34.9067 164.16C34.9497 164.111 34.9782 164.051 34.9888 163.987C34.9995 163.923 34.992 163.857 34.967 163.796C34.9421 163.736 34.9008 163.684 34.8478 163.646C34.7948 163.608 34.7323 163.585 34.6672 163.581L32.8911 163.46C32.7081 163.448 32.5293 163.4 32.3648 163.318L32.4256 163.194C32.5739 163.267 32.7349 163.311 32.8998 163.322L34.6768 163.443C34.7677 163.449 34.8551 163.48 34.9291 163.534C35.003 163.587 35.0606 163.66 35.0953 163.744C35.13 163.828 35.1404 163.92 35.1253 164.01C35.1102 164.1 35.0703 164.184 35.01 164.252L33.8337 165.589C33.6978 165.743 33.6014 165.928 33.553 166.128C33.5045 166.327 33.5054 166.536 33.5556 166.735L33.9892 168.463C34.0112 168.551 34.0081 168.644 33.9802 168.731C33.9523 168.817 33.9008 168.894 33.8314 168.953C33.762 169.012 33.6775 169.051 33.5875 169.064C33.4975 169.078 33.4055 169.066 33.3219 169.03L31.6878 168.323C31.4988 168.242 31.2933 168.209 31.0885 168.225C30.8838 168.24 30.6859 168.305 30.5115 168.414L29.003 169.359C28.9255 169.406 28.8366 169.43 28.7461 169.43V169.43Z" fill="white"/>
<path d="M31.447 161.955L31.3281 162.026L31.6027 162.489L31.7216 162.419L31.447 161.955Z" fill="white"/>
<path d="M47.0332 169.973L44.53 168.893C44.4341 168.851 44.3296 168.834 44.2255 168.842C44.1213 168.849 44.0206 168.883 43.9322 168.938L41.6221 170.387C41.5201 170.45 41.4024 170.484 41.2823 170.485C41.1621 170.485 41.0442 170.452 40.9419 170.389C40.8396 170.326 40.7569 170.235 40.7032 170.128C40.6495 170.02 40.6269 169.9 40.6379 169.78L40.8929 167.066C40.9029 166.962 40.8873 166.857 40.8476 166.76C40.8079 166.664 40.7452 166.578 40.665 166.511L38.5712 164.758C38.4789 164.681 38.41 164.58 38.3723 164.466C38.3346 164.351 38.3296 164.229 38.358 164.112C38.3863 163.995 38.4468 163.888 38.5327 163.804C38.6185 163.72 38.7262 163.661 38.8436 163.635L41.5042 163.038C41.6059 163.016 41.7006 162.969 41.7802 162.901C41.8598 162.834 41.9218 162.748 41.961 162.652L42.977 160.123C43.0218 160.011 43.097 159.914 43.194 159.843C43.291 159.772 43.4059 159.73 43.5258 159.72C43.6457 159.711 43.7657 159.736 43.8724 159.791C43.979 159.847 44.068 159.931 44.1292 160.035L45.5189 162.381C45.572 162.47 45.6462 162.546 45.735 162.601C45.8239 162.656 45.9247 162.688 46.0289 162.695L48.7494 162.881C48.8693 162.889 48.9846 162.93 49.0822 163.001C49.1798 163.071 49.2558 163.167 49.3016 163.278C49.3475 163.389 49.3613 163.511 49.3415 163.629C49.3217 163.748 49.2692 163.859 49.1898 163.949L47.3877 165.995C47.3192 166.074 47.2706 166.167 47.2461 166.268C47.2215 166.369 47.2217 166.474 47.2467 166.575L47.9111 169.219C47.9416 169.336 47.9386 169.459 47.9026 169.574C47.8666 169.689 47.7991 169.792 47.7076 169.87C47.6161 169.949 47.5044 170 47.3852 170.018C47.266 170.037 47.144 170.021 47.0332 169.973V169.973Z" fill="url(#paint26_linear_738_3481)"/>
<path d="M41.3359 166.355C41.2636 166.232 41.1705 166.123 41.0606 166.032L39.6941 164.89C39.6244 164.831 39.5724 164.754 39.544 164.668C39.5156 164.582 39.5118 164.489 39.5332 164.4C39.5546 164.312 39.6002 164.231 39.665 164.167C39.7298 164.104 39.8111 164.059 39.8998 164.039L41.6382 163.652C41.8386 163.607 42.0251 163.514 42.1815 163.381C42.338 163.247 42.4597 163.078 42.5363 162.888L43.2008 161.235C43.2353 161.152 43.2923 161.08 43.3654 161.027C43.4385 160.974 43.5249 160.942 43.6149 160.935C43.7049 160.928 43.7951 160.946 43.8754 160.987C43.9558 161.029 44.0231 161.091 44.07 161.169L44.5335 161.952L44.4147 162.022L43.9512 161.239C43.9177 161.183 43.8693 161.138 43.8114 161.108C43.7535 161.078 43.6883 161.064 43.6233 161.069C43.5583 161.074 43.496 161.097 43.4433 161.136C43.3907 161.174 43.3498 161.227 43.3254 161.287L42.6609 162.94C42.5762 163.151 42.4411 163.339 42.2675 163.487C42.0938 163.635 41.8868 163.738 41.6642 163.788L39.9259 164.174C39.8622 164.188 39.8038 164.22 39.7573 164.266C39.7107 164.311 39.6779 164.369 39.6625 164.433C39.6472 164.496 39.6498 164.563 39.6703 164.625C39.6907 164.687 39.728 164.742 39.7781 164.783L41.1437 165.926C41.265 166.027 41.3682 166.148 41.4489 166.283L41.3359 166.355Z" fill="white"/>
<path d="M41.832 169.43C41.7417 169.429 41.6531 169.404 41.5761 169.357C41.4981 169.31 41.435 169.241 41.3944 169.16C41.3537 169.078 41.337 168.986 41.3462 168.896L41.4737 167.543L41.6118 167.556L41.4843 168.908C41.4783 168.973 41.4906 169.038 41.5197 169.097C41.5489 169.155 41.5938 169.204 41.6493 169.238C41.7049 169.272 41.7689 169.29 41.8341 169.29C41.8993 169.29 41.9632 169.271 42.0184 169.236L43.5269 168.29C43.7207 168.17 43.9404 168.099 44.1675 168.082C44.3946 168.066 44.6224 168.104 44.8317 168.193L46.4657 168.899C46.5256 168.926 46.5916 168.935 46.6563 168.925C46.721 168.916 46.7818 168.888 46.8316 168.846C46.8815 168.804 46.9184 168.748 46.9383 168.686C46.9581 168.624 46.96 168.557 46.9438 168.494L46.5102 166.766C46.4544 166.545 46.4533 166.314 46.507 166.092C46.5607 165.871 46.6675 165.666 46.8183 165.495L48.0003 164.156C48.0433 164.107 48.0718 164.047 48.0825 163.982C48.0932 163.918 48.0857 163.852 48.0609 163.792C48.0361 163.732 47.995 163.679 47.9421 163.641C47.8893 163.603 47.8268 163.581 47.7618 163.576L45.9848 163.455C45.8018 163.443 45.6229 163.395 45.4585 163.313L45.5203 163.189C45.6681 163.262 45.8289 163.306 45.9935 163.317L47.7705 163.438C47.8614 163.444 47.9488 163.475 48.0227 163.529C48.0967 163.582 48.1543 163.655 48.189 163.739C48.2237 163.823 48.234 163.915 48.219 164.005C48.2039 164.095 48.164 164.179 48.1037 164.247L46.9274 165.584C46.7915 165.738 46.6951 165.923 46.6467 166.123C46.5982 166.322 46.5991 166.531 46.6492 166.73L47.0829 168.458C47.1051 168.546 47.1022 168.639 47.0745 168.726C47.0468 168.813 46.9953 168.89 46.926 168.949C46.8566 169.008 46.7722 169.046 46.6821 169.06C46.5921 169.073 46.5001 169.061 46.4165 169.025L44.7815 168.318C44.5925 168.238 44.387 168.204 44.1822 168.22C43.9775 168.235 43.7795 168.3 43.6052 168.409L42.0966 169.354C42.0175 169.404 41.9256 169.43 41.832 169.43V169.43Z" fill="white"/>
<path d="M44.5349 161.954L44.416 162.024L44.6906 162.488L44.8095 162.417L44.5349 161.954Z" fill="white"/>
<path d="M60.963 169.973L58.4597 168.893C58.3639 168.851 58.2593 168.834 58.1552 168.842C58.051 168.849 57.9504 168.883 57.8619 168.938L55.5518 170.387C55.4498 170.451 55.3319 170.485 55.2114 170.486C55.0909 170.487 54.9727 170.453 54.87 170.39C54.7674 170.327 54.6845 170.237 54.6307 170.129C54.5769 170.021 54.5544 169.9 54.5657 169.78L54.8207 167.066C54.8306 166.962 54.8151 166.857 54.7754 166.76C54.7356 166.664 54.673 166.578 54.5928 166.511L52.5029 164.758C52.4105 164.681 52.3416 164.58 52.3039 164.466C52.2662 164.351 52.2613 164.229 52.2896 164.112C52.318 163.995 52.3785 163.888 52.4643 163.804C52.5501 163.72 52.6578 163.661 52.7752 163.635L55.4359 163.038C55.5376 163.016 55.6323 162.969 55.7118 162.901C55.7914 162.834 55.8535 162.748 55.8927 162.652L56.9096 160.122C56.9545 160.01 57.0296 159.913 57.1266 159.842C57.2236 159.771 57.3385 159.729 57.4584 159.719C57.5783 159.71 57.6983 159.735 57.805 159.79C57.9116 159.846 58.0006 159.93 58.0618 160.034L59.4515 162.38C59.5047 162.469 59.5788 162.545 59.6677 162.6C59.7565 162.655 59.8573 162.687 59.9615 162.694L62.682 162.88C62.802 162.888 62.9172 162.929 63.0148 163C63.1124 163.07 63.1884 163.166 63.2342 163.277C63.2801 163.388 63.2939 163.51 63.2741 163.628C63.2543 163.747 63.2018 163.858 63.1224 163.948L61.3203 165.994C61.2518 166.073 61.2032 166.166 61.1787 166.267C61.1541 166.368 61.1543 166.473 61.1793 166.574L61.8437 169.218C61.8748 169.335 61.8722 169.459 61.8362 169.574C61.8002 169.69 61.7323 169.793 61.6404 169.872C61.5484 169.951 61.4361 170.002 61.3162 170.02C61.1964 170.038 61.074 170.022 60.963 169.973V169.973Z" fill="url(#paint27_linear_738_3481)"/>
<path d="M55.2705 166.355C55.1982 166.232 55.1054 166.123 54.9962 166.032L53.6296 164.89C53.5599 164.831 53.508 164.754 53.4795 164.668C53.4511 164.582 53.4474 164.489 53.4688 164.4C53.4901 164.312 53.5358 164.231 53.6005 164.167C53.6653 164.104 53.7466 164.059 53.8353 164.039L55.5737 163.652C55.7742 163.607 55.9606 163.514 56.1171 163.381C56.2735 163.247 56.3953 163.078 56.4719 162.888L57.1363 161.235C57.1709 161.152 57.2279 161.08 57.301 161.027C57.3741 160.974 57.4604 160.942 57.5505 160.935C57.6405 160.928 57.7307 160.946 57.811 160.987C57.8913 161.029 57.9586 161.091 58.0055 161.169L58.4691 161.952L58.3503 162.022L57.8867 161.239C57.8533 161.183 57.8048 161.138 57.7469 161.108C57.689 161.078 57.6239 161.064 57.5589 161.069C57.4938 161.074 57.4315 161.097 57.3789 161.136C57.3262 161.174 57.2854 161.227 57.2609 161.287L56.5965 162.94C56.5117 163.151 56.3767 163.339 56.203 163.487C56.0294 163.635 55.8223 163.738 55.5998 163.788L53.8614 164.174C53.7977 164.188 53.7393 164.22 53.6928 164.266C53.6463 164.311 53.6135 164.369 53.5981 164.433C53.5827 164.496 53.5854 164.563 53.6058 164.625C53.6262 164.687 53.6636 164.742 53.7136 164.783L55.0792 165.926C55.2006 166.027 55.3041 166.148 55.3854 166.283L55.2705 166.355Z" fill="white"/>
<path d="M55.7637 169.43C55.6733 169.429 55.5848 169.404 55.5077 169.357C55.4297 169.31 55.3667 169.241 55.326 169.16C55.2853 169.078 55.2686 168.986 55.2779 168.896L55.4053 167.543L55.5435 167.556L55.416 168.908C55.4099 168.973 55.4222 169.038 55.4514 169.097C55.4805 169.155 55.5254 169.204 55.581 169.238C55.6365 169.272 55.7005 169.29 55.7658 169.29C55.831 169.29 55.8948 169.271 55.95 169.236L57.4586 168.29C57.6523 168.17 57.872 168.099 58.0991 168.082C58.3262 168.066 58.5541 168.104 58.7633 168.193L60.3974 168.899C60.4574 168.927 60.5241 168.937 60.5896 168.928C60.6551 168.919 60.7168 168.892 60.7674 168.85C60.818 168.807 60.8555 168.751 60.8755 168.688C60.8955 168.625 60.8971 168.558 60.8803 168.494L60.4466 166.766C60.3911 166.545 60.3902 166.314 60.4438 166.093C60.4975 165.871 60.6042 165.666 60.7547 165.495L61.932 164.158C61.975 164.109 62.0034 164.049 62.0142 163.984C62.0249 163.92 62.0174 163.854 61.9926 163.794C61.9678 163.733 61.9266 163.681 61.8738 163.643C61.8209 163.605 61.7585 163.583 61.6934 163.578L59.9164 163.457C59.7334 163.445 59.5546 163.397 59.3901 163.315L59.4519 163.191C59.6001 163.264 59.7612 163.308 59.9261 163.319L61.7021 163.44C61.793 163.446 61.8804 163.477 61.9544 163.531C62.0283 163.584 62.0859 163.657 62.1206 163.741C62.1553 163.825 62.1657 163.917 62.1506 164.007C62.1355 164.097 62.0956 164.181 62.0353 164.249L60.859 165.586C60.7231 165.74 60.6268 165.925 60.5783 166.125C60.5298 166.324 60.5307 166.533 60.5809 166.732L61.0145 168.46C61.0368 168.548 61.0339 168.641 61.0061 168.728C60.9784 168.814 60.927 168.892 60.8576 168.951C60.7883 169.01 60.7038 169.048 60.6138 169.062C60.5237 169.075 60.4317 169.063 60.3481 169.027L58.7131 168.32C58.5241 168.24 58.3186 168.206 58.1138 168.222C57.9091 168.237 57.7112 168.302 57.5368 168.411L56.0283 169.356C55.9489 169.405 55.8571 169.431 55.7637 169.43Z" fill="white"/>
<path d="M58.4684 161.955L58.3496 162.025L58.6242 162.489L58.743 162.418L58.4684 161.955Z" fill="white"/>
<path d="M74.4381 169.973L71.9349 168.893C71.839 168.851 71.7345 168.834 71.6304 168.842C71.5262 168.849 71.4255 168.883 71.3371 168.938L69.027 170.387C68.925 170.45 68.8073 170.484 68.6872 170.485C68.567 170.485 68.4491 170.452 68.3468 170.389C68.2445 170.326 68.1618 170.235 68.1081 170.128C68.0544 170.02 68.0318 169.9 68.0428 169.78L68.2978 167.066C68.3078 166.962 68.2922 166.857 68.2525 166.76C68.2128 166.664 68.1501 166.578 68.0699 166.511L65.978 164.758C65.8865 164.681 65.8184 164.579 65.7814 164.465C65.7445 164.351 65.74 164.229 65.7686 164.113C65.7972 163.997 65.8577 163.89 65.9433 163.806C66.029 163.723 66.1363 163.664 66.2533 163.638L68.9149 163.041C69.0166 163.019 69.1113 162.972 69.1909 162.904C69.2705 162.837 69.3325 162.751 69.3717 162.655L70.3887 160.125C70.4335 160.013 70.5087 159.916 70.6056 159.845C70.7026 159.774 70.8175 159.732 70.9374 159.722C71.0573 159.713 71.1774 159.738 71.284 159.793C71.3907 159.849 71.4796 159.933 71.5408 160.037L72.9306 162.383C72.9837 162.472 73.0579 162.548 73.1467 162.603C73.2355 162.658 73.3364 162.69 73.4405 162.697L76.1611 162.883C76.281 162.891 76.3963 162.932 76.4939 163.003C76.5915 163.073 76.6675 163.169 76.7133 163.28C76.7591 163.391 76.7729 163.513 76.7532 163.631C76.7334 163.75 76.6808 163.861 76.6015 163.951L74.7993 165.997C74.7309 166.075 74.6823 166.169 74.6577 166.27C74.6332 166.371 74.6334 166.476 74.6583 166.577L75.3228 169.221C75.3536 169.338 75.3507 169.462 75.3143 169.578C75.2779 169.694 75.2095 169.797 75.1171 169.876C75.0246 169.954 74.9118 170.005 74.7917 170.022C74.6716 170.04 74.549 170.023 74.4381 169.973V169.973Z" fill="url(#paint28_linear_738_3481)"/>
<path d="M68.7431 166.355C68.6708 166.232 68.5777 166.123 68.4679 166.032L67.1023 164.89C67.0326 164.831 66.9806 164.754 66.9522 164.668C66.9238 164.582 66.92 164.489 66.9414 164.4C66.9628 164.312 67.0084 164.231 67.0732 164.167C67.138 164.104 67.2193 164.059 67.308 164.039L69.0464 163.652C69.2468 163.607 69.4333 163.514 69.5897 163.381C69.7462 163.247 69.8679 163.078 69.9445 162.888L70.609 161.235C70.6435 161.152 70.7005 161.08 70.7736 161.027C70.8467 160.974 70.9331 160.942 71.0231 160.935C71.1131 160.928 71.2033 160.946 71.2836 160.987C71.364 161.029 71.4313 161.091 71.4782 161.169L71.9417 161.952L71.8229 162.022L71.3594 161.239C71.3259 161.183 71.2775 161.138 71.2196 161.108C71.1617 161.078 71.0965 161.064 71.0315 161.069C70.9665 161.074 70.9042 161.097 70.8515 161.136C70.7989 161.174 70.758 161.227 70.7336 161.287L70.0691 162.94C69.9844 163.151 69.8493 163.339 69.6757 163.487C69.502 163.635 69.295 163.738 69.0724 163.788L67.3341 164.174C67.2704 164.188 67.212 164.22 67.1655 164.266C67.1189 164.311 67.0861 164.369 67.0707 164.433C67.0554 164.496 67.058 164.563 67.0785 164.625C67.0989 164.687 67.1362 164.742 67.1863 164.783L68.5519 165.926C68.6732 166.027 68.7764 166.148 68.8571 166.283L68.7431 166.355Z" fill="white"/>
<path d="M69.2363 169.43C69.146 169.429 69.0574 169.404 68.9804 169.357C68.9024 169.31 68.8393 169.241 68.7987 169.16C68.758 169.078 68.7413 168.986 68.7505 168.896L68.878 167.543L69.0161 167.556L68.8886 168.908C68.8826 168.973 68.8949 169.038 68.924 169.097C68.9532 169.155 68.9981 169.204 69.0536 169.238C69.1092 169.272 69.1732 169.29 69.2384 169.29C69.3036 169.29 69.3675 169.271 69.4227 169.236L70.9312 168.29C71.125 168.17 71.3447 168.099 71.5718 168.082C71.7989 168.066 72.0267 168.104 72.236 168.193L73.87 168.899C73.9301 168.927 73.9966 168.936 74.062 168.927C74.1273 168.918 74.1887 168.891 74.2392 168.849C74.2897 168.806 74.3272 168.75 74.3473 168.688C74.3674 168.625 74.3694 168.558 74.3529 168.494L73.9193 166.766C73.8635 166.545 73.8624 166.314 73.9161 166.092C73.9698 165.871 74.0766 165.666 74.2274 165.495L75.4046 164.158C75.4476 164.109 75.4761 164.049 75.4868 163.984C75.4975 163.92 75.49 163.854 75.4652 163.794C75.4404 163.733 75.3993 163.681 75.3464 163.643C75.2936 163.605 75.2311 163.583 75.1661 163.578L73.3891 163.457C73.2061 163.445 73.0272 163.397 72.8628 163.315L72.9236 163.191C73.0718 163.264 73.2329 163.308 73.3978 163.319L75.1748 163.44C75.2657 163.446 75.3531 163.477 75.427 163.531C75.501 163.584 75.5586 163.657 75.5933 163.741C75.628 163.825 75.6383 163.917 75.6233 164.007C75.6082 164.097 75.5683 164.181 75.508 164.249L74.3317 165.586C74.1958 165.74 74.0994 165.925 74.051 166.125C74.0025 166.324 74.0034 166.533 74.0535 166.732L74.4872 168.46C74.5094 168.548 74.5065 168.641 74.4788 168.728C74.4511 168.814 74.3996 168.892 74.3303 168.951C74.2609 169.01 74.1765 169.048 74.0864 169.062C73.9964 169.075 73.9044 169.063 73.8208 169.027L72.1858 168.32C71.9968 168.24 71.7913 168.206 71.5865 168.222C71.3818 168.237 71.1838 168.302 71.0094 168.411L69.5009 169.356C69.4215 169.405 69.3297 169.431 69.2363 169.43Z" fill="white"/>
<path d="M71.9411 161.957L71.8223 162.027L72.0968 162.491L72.2157 162.421L71.9411 161.957Z" fill="white"/>
<path d="M88.2618 169.973L85.7605 168.891C85.6646 168.849 85.5601 168.832 85.4559 168.84C85.3518 168.847 85.2511 168.881 85.1626 168.936L82.8525 170.385C82.7507 170.449 82.633 170.483 82.5128 170.483C82.3927 170.483 82.2748 170.45 82.1725 170.387C82.0702 170.324 81.9876 170.234 81.9341 170.126C81.8805 170.018 81.8581 169.898 81.8694 169.778L82.1234 167.064C82.1335 166.96 82.118 166.855 82.0783 166.758C82.0386 166.661 81.9758 166.576 81.8955 166.509L79.8017 164.758C79.7093 164.681 79.6404 164.58 79.6027 164.466C79.5651 164.351 79.5601 164.229 79.5885 164.112C79.6168 163.995 79.6773 163.888 79.7631 163.804C79.8489 163.72 79.9566 163.661 80.074 163.635L82.7347 163.038C82.8364 163.016 82.9311 162.969 83.0107 162.901C83.0902 162.834 83.1523 162.748 83.1915 162.652L84.2085 160.122C84.2533 160.01 84.3284 159.913 84.4254 159.842C84.5224 159.771 84.6373 159.729 84.7572 159.719C84.8771 159.71 84.9972 159.735 85.1038 159.79C85.2104 159.846 85.2994 159.93 85.3606 160.034L86.7504 162.38C86.8036 162.47 86.878 162.545 86.967 162.6C87.056 162.655 87.157 162.687 87.2612 162.694L89.9818 162.88C90.1017 162.888 90.2168 162.93 90.3143 163C90.4117 163.07 90.4876 163.166 90.5333 163.277C90.579 163.389 90.5927 163.51 90.5729 163.629C90.5531 163.747 90.5006 163.858 90.4212 163.948L88.6191 165.994C88.5506 166.073 88.5021 166.166 88.4775 166.267C88.453 166.368 88.4532 166.473 88.4781 166.574L89.1426 169.218C89.1736 169.335 89.171 169.459 89.135 169.574C89.099 169.69 89.0312 169.793 88.9392 169.872C88.8472 169.951 88.7349 170.002 88.6151 170.02C88.4952 170.038 88.3728 170.022 88.2618 169.973V169.973Z" fill="url(#paint29_linear_738_3481)"/>
<path d="M82.5732 166.355C82.5003 166.232 82.4072 166.123 82.2979 166.032L80.9314 164.89C80.8613 164.831 80.809 164.754 80.7804 164.668C80.7519 164.581 80.7481 164.488 80.7696 164.4C80.7912 164.311 80.8371 164.23 80.9022 164.167C80.9673 164.103 81.049 164.059 81.138 164.039L82.8764 163.652C83.077 163.607 83.2636 163.514 83.4202 163.381C83.5768 163.248 83.6987 163.078 83.7755 162.888L84.439 161.235C84.4736 161.152 84.5306 161.08 84.6037 161.027C84.6768 160.974 84.7631 160.942 84.8531 160.935C84.9432 160.928 85.0334 160.946 85.1137 160.987C85.194 161.029 85.2613 161.091 85.3082 161.169L85.7718 161.952L85.653 162.022L85.1894 161.239C85.156 161.183 85.1075 161.138 85.0496 161.108C84.9917 161.078 84.9266 161.064 84.8616 161.069C84.7965 161.074 84.7342 161.097 84.6816 161.136C84.6289 161.174 84.5881 161.227 84.5636 161.287L83.9001 162.94C83.815 163.151 83.6797 163.339 83.5059 163.487C83.3321 163.635 83.125 163.738 82.9025 163.788L81.1641 164.174C81.1007 164.189 81.0425 164.221 80.9962 164.266C80.9499 164.312 80.9173 164.37 80.902 164.433C80.8866 164.496 80.8892 164.563 80.9094 164.624C80.9296 164.686 80.9666 164.741 81.0163 164.783L82.38 165.926C82.501 166.027 82.6042 166.148 82.6852 166.283L82.5732 166.355Z" fill="white"/>
<path d="M83.0631 169.43C82.9954 169.429 82.9286 169.415 82.8668 169.387C82.8051 169.359 82.7497 169.319 82.7043 169.269C82.6589 169.219 82.6245 169.159 82.6031 169.095C82.5817 169.031 82.5739 168.963 82.5802 168.896L82.7077 167.543L82.8458 167.556L82.7183 168.908C82.7123 168.973 82.7246 169.038 82.7537 169.097C82.7829 169.155 82.8278 169.204 82.8833 169.238C82.9389 169.272 83.0029 169.29 83.0681 169.29C83.1334 169.29 83.1972 169.271 83.2524 169.236L84.7609 168.29C84.9547 168.17 85.1744 168.099 85.4015 168.082C85.6286 168.066 85.8564 168.104 86.0657 168.193L87.7007 168.899C87.7605 168.925 87.8264 168.934 87.891 168.925C87.9555 168.915 88.0161 168.888 88.0658 168.845C88.1155 168.803 88.1523 168.748 88.1721 168.686C88.1919 168.623 88.1939 168.557 88.1778 168.494L87.7442 166.766C87.6887 166.545 87.6877 166.314 87.7414 166.093C87.795 165.871 87.9017 165.666 88.0523 165.495L89.2295 164.158C89.2725 164.109 89.301 164.049 89.3117 163.984C89.3224 163.92 89.3149 163.854 89.2901 163.794C89.2653 163.733 89.2242 163.681 89.1713 163.643C89.1185 163.605 89.056 163.583 88.991 163.578L87.214 163.457C87.031 163.445 86.8522 163.397 86.6876 163.315L86.7494 163.191C86.8976 163.264 87.0587 163.308 87.2236 163.319L89.0006 163.44C89.0915 163.446 89.1789 163.477 89.2529 163.531C89.3269 163.584 89.3844 163.657 89.4191 163.741C89.4538 163.825 89.4642 163.917 89.4491 164.007C89.4341 164.097 89.3941 164.181 89.3338 164.249L88.1566 165.586C88.0209 165.74 87.9247 165.925 87.8762 166.125C87.8278 166.324 87.8285 166.533 87.8784 166.732L88.3121 168.46C88.3363 168.549 88.3349 168.642 88.3078 168.73C88.2807 168.818 88.2292 168.896 88.1593 168.956C88.0893 169.015 88.0038 169.053 87.9129 169.066C87.8219 169.079 87.7292 169.065 87.6457 169.027L86.0106 168.32C85.8217 168.24 85.6161 168.206 85.4114 168.222C85.2066 168.237 85.0087 168.302 84.8343 168.411L83.3258 169.356C83.2471 169.405 83.1559 169.431 83.0631 169.43V169.43Z" fill="white"/>
<path d="M85.7653 161.957L85.6465 162.028L85.921 162.491L86.0398 162.421L85.7653 161.957Z" fill="white"/>
<path opacity="0.7" d="M87.6533 154.077C87.6533 155.247 86.8006 156.068 85.7488 156.068H34.5295C33.4778 156.068 32.625 155.247 32.625 154.077V153.968C32.625 152.797 33.4778 151.835 34.5295 151.835H85.7488C86.8006 151.835 87.6533 152.801 87.6533 153.968V154.077Z" fill="white"/>
<g opacity="0.7">
<path opacity="0.7" d="M229.542 101.853H135.624C134.984 101.853 134.465 102.372 134.465 103.012V121.558C134.465 122.198 134.984 122.717 135.624 122.717H229.542C230.183 122.717 230.701 122.198 230.701 121.558V103.012C230.701 102.372 230.183 101.853 229.542 101.853Z" fill="white"/>
<path opacity="0.7" d="M209.264 121.989L213.756 129.127L217.894 121.639L209.264 121.989Z" fill="white"/>
</g>
<path d="M153.447 118.658C156.713 115.392 156.713 110.096 153.447 106.829C150.18 103.563 144.884 103.563 141.618 106.829C138.351 110.096 138.351 115.392 141.618 118.658C144.884 121.925 150.18 121.925 153.447 118.658Z" fill="white"/>
<path d="M150.081 109.571C150.081 111.004 148.935 112.516 147.516 112.474C146.097 112.431 144.938 110.84 144.938 109.399C144.938 107.958 146.096 106.976 147.516 107.028C148.936 107.079 150.081 108.137 150.081 109.571Z" fill="url(#paint30_linear_738_3481)"/>
<path d="M144.308 117.93L150.586 118.081C150.904 118.089 151.217 117.992 151.476 117.807C151.735 117.621 151.926 117.356 152.021 117.051L152.355 115.998C152.473 115.621 152.446 115.213 152.278 114.855C152.11 114.497 151.813 114.216 151.447 114.066C148.907 113.05 146.266 113.094 143.544 113.929C143.175 114.049 142.867 114.307 142.684 114.649C142.502 114.991 142.459 115.391 142.565 115.764L142.828 116.746C142.914 117.077 143.104 117.371 143.371 117.584C143.638 117.798 143.967 117.919 144.308 117.93V117.93Z" fill="url(#paint31_linear_738_3481)"/>
<g opacity="0.7">
<path opacity="0.7" d="M231.171 159.657H137.253C136.613 159.657 136.094 160.176 136.094 160.816V179.362C136.094 180.002 136.613 180.521 137.253 180.521H231.171C231.811 180.521 232.33 180.002 232.33 179.362V160.816C232.33 160.176 231.811 159.657 231.171 159.657Z" fill="white"/>
<path opacity="0.7" d="M210.891 179.792L215.383 186.931L219.521 179.443L210.891 179.792Z" fill="white"/>
</g>
<path d="M155.076 176.463C158.342 173.196 158.342 167.9 155.076 164.633C151.809 161.367 146.513 161.367 143.247 164.633C139.98 167.9 139.98 173.196 143.247 176.463C146.513 179.729 151.809 179.729 155.076 176.463Z" fill="white"/>
<path d="M151.706 167.375C151.706 168.808 150.56 170.32 149.141 170.278C147.722 170.235 146.562 168.644 146.562 167.203C146.562 165.762 147.721 164.78 149.141 164.832C150.561 164.883 151.706 165.941 151.706 167.375Z" fill="url(#paint32_linear_738_3481)"/>
<path d="M145.937 175.734L152.215 175.885C152.533 175.893 152.846 175.796 153.105 175.611C153.364 175.425 153.555 175.16 153.65 174.855L153.984 173.801C154.102 173.424 154.075 173.016 153.907 172.658C153.738 172.3 153.442 172.019 153.076 171.869C150.536 170.853 147.895 170.897 145.173 171.732C144.804 171.852 144.496 172.11 144.313 172.452C144.13 172.794 144.088 173.194 144.194 173.567L144.457 174.549C144.542 174.88 144.733 175.174 145 175.388C145.267 175.602 145.595 175.723 145.937 175.734V175.734Z" fill="url(#paint33_linear_738_3481)"/>
<g opacity="0.7">
<path opacity="0.7" d="M137.252 151.484H231.171C231.811 151.484 232.33 150.965 232.33 150.325V131.779C232.33 131.139 231.811 130.62 231.171 130.62H137.252C136.612 130.62 136.094 131.139 136.094 131.779V150.325C136.094 150.965 136.612 151.484 137.252 151.484Z" fill="white"/>
<path opacity="0.7" d="M157.532 150.756L153.04 157.894L148.902 150.405L157.532 150.756Z" fill="white"/>
</g>
<path d="M225.177 147.425C228.444 144.158 228.444 138.862 225.177 135.596C221.911 132.329 216.615 132.329 213.348 135.596C210.082 138.862 210.082 144.158 213.348 147.425C216.615 150.691 221.911 150.691 225.177 147.425Z" fill="white"/>
<path d="M216.719 138.337C216.719 139.77 217.865 141.282 219.283 141.24C220.701 141.197 221.862 139.606 221.862 138.165C221.862 136.724 220.704 135.743 219.283 135.794C217.862 135.845 216.719 136.904 216.719 138.337Z" fill="url(#paint34_linear_738_3481)"/>
<path d="M222.486 146.698L216.209 146.849C215.89 146.857 215.578 146.761 215.319 146.575C215.06 146.389 214.868 146.124 214.773 145.82L214.439 144.765C214.321 144.388 214.349 143.98 214.517 143.622C214.686 143.264 214.982 142.983 215.348 142.833C217.887 141.817 220.528 141.861 223.251 142.696C223.62 142.816 223.928 143.074 224.111 143.416C224.293 143.758 224.336 144.158 224.23 144.531L223.962 145.52C223.875 145.849 223.685 146.141 223.419 146.353C223.153 146.566 222.826 146.687 222.486 146.698V146.698Z" fill="url(#paint35_linear_738_3481)"/>
<g opacity="0.7">
<path opacity="0.7" d="M138.338 208.744H232.257C232.897 208.744 233.416 208.225 233.416 207.585V189.04C233.416 188.399 232.897 187.881 232.257 187.881H138.338C137.698 187.881 137.179 188.399 137.179 189.04V207.585C137.179 208.225 137.698 208.744 138.338 208.744Z" fill="white"/>
<path opacity="0.7" d="M158.62 208.016L154.128 215.154L149.99 207.666L158.62 208.016Z" fill="white"/>
</g>
<path d="M226.263 204.685C229.53 201.419 229.53 196.123 226.263 192.856C222.997 189.59 217.701 189.59 214.434 192.856C211.168 196.123 211.168 201.419 214.434 204.685C217.701 207.952 222.997 207.952 226.263 204.685Z" fill="white"/>
<path d="M217.803 195.598C217.803 197.031 218.949 198.544 220.367 198.501C221.785 198.459 222.946 196.867 222.946 195.425C222.946 193.983 221.787 193.004 220.367 193.055C218.946 193.106 217.803 194.165 217.803 195.598Z" fill="url(#paint36_linear_738_3481)"/>
<path d="M223.575 203.958L217.297 204.108C216.979 204.116 216.666 204.02 216.407 203.834C216.148 203.648 215.957 203.383 215.862 203.079L215.528 202.024C215.411 201.648 215.44 201.241 215.608 200.884C215.776 200.528 216.072 200.247 216.437 200.098C218.976 199.082 221.617 199.125 224.339 199.96C224.708 200.08 225.017 200.338 225.199 200.68C225.382 201.023 225.425 201.422 225.319 201.795L225.056 202.778C224.969 203.108 224.778 203.401 224.511 203.614C224.244 203.826 223.916 203.947 223.575 203.958V203.958Z" fill="url(#paint37_linear_738_3481)"/>
<path d="M223.867 268.884C226.571 269.119 231.272 269.498 234.973 269.657C237.199 269.753 238.48 269.537 239.222 269.242C239.222 269.325 239.222 269.403 239.215 269.476C239.205 269.665 239.125 269.844 238.991 269.978C238.856 270.111 238.677 270.19 238.488 270.2C233.644 270.475 228.788 270.48 223.943 270.214C223.849 270.209 223.759 270.181 223.679 270.131C223.6 270.081 223.535 270.012 223.49 269.93C223.445 269.847 223.423 269.755 223.424 269.661C223.425 269.568 223.451 269.476 223.498 269.395C223.608 269.216 223.732 269.046 223.867 268.884V268.884Z" fill="url(#paint38_linear_738_3481)"/>
<path d="M234.972 269.662C231.268 269.498 226.569 269.119 223.865 268.889C226.527 265.624 234.972 263.424 234.972 263.424H237.357C238.999 265.789 239.235 268.041 239.217 269.251C238.483 269.544 237.201 269.759 234.972 269.662Z" fill="url(#paint39_linear_738_3481)"/>
<path d="M237.763 259.524L237.54 263.941C237.528 264.175 237.436 264.397 237.279 264.57C237.122 264.744 236.909 264.857 236.678 264.891C236.077 264.98 235.464 264.929 234.886 264.742C234.682 264.675 234.5 264.555 234.359 264.393C234.217 264.232 234.122 264.035 234.083 263.825L233.311 259.524H237.763Z" fill="url(#paint40_linear_738_3481)"/>
<path d="M268.749 269.629C269.924 269.465 270.455 268.856 270.681 268.203L270.686 268.221C270.859 268.908 270.458 269.621 269.658 269.959C268.692 270.369 267.63 270.442 266.811 270.404C265.93 270.369 265.121 270.003 264.677 269.42L264.67 269.411C265.551 269.85 266.792 269.901 268.749 269.629Z" fill="url(#paint41_linear_738_3481)"/>
<path d="M263.216 259.5H265.183C268.177 259.439 270.062 265.76 270.677 268.208C270.455 268.86 269.924 269.469 268.746 269.634C266.788 269.906 265.547 269.855 264.662 269.417C263.044 267.287 262.241 264.166 261.855 262.345C261.42 260.272 263.216 259.5 263.216 259.5Z" fill="url(#paint42_linear_738_3481)"/>
<path d="M264.93 255.394L266.022 259.74C266.086 260 266.061 260.273 265.949 260.516C265.838 260.759 265.647 260.957 265.409 261.077C264.797 261.39 263.937 261.72 263.146 261.624C262.964 261.6 262.793 261.526 262.651 261.41C262.509 261.294 262.402 261.141 262.342 260.968L260.738 256.396L264.93 255.394Z" fill="url(#paint43_linear_738_3481)"/>
<path d="M266.234 256.651C264.875 257.856 260.453 258.015 260.453 258.015C244.527 219.791 238.013 214.363 238.013 214.363C240.312 228.79 238.384 260.731 238.384 260.731C235.755 261.89 232.367 260.731 232.367 260.731C232.173 240.32 229.441 220.012 224.234 200.274C234.999 200.033 240.723 196.349 242.592 194.871C251.565 209.333 266.234 256.651 266.234 256.651Z" fill="url(#paint44_linear_738_3481)"/>
<path d="M239.857 150.91C241.895 161.073 241.165 179.262 240.685 187.558C240.551 189.89 242.178 193.123 243.494 195.329C243.543 195.41 243.575 195.5 243.588 195.595C243.6 195.689 243.593 195.784 243.567 195.876C243.54 195.967 243.496 196.052 243.435 196.125C243.375 196.198 243.3 196.258 243.215 196.301C241.012 197.434 233.549 200.943 224.899 201.379C224.619 201.39 224.343 201.304 224.117 201.137C223.891 200.969 223.729 200.73 223.658 200.458C217.243 176.502 209.791 161.194 209.791 161.194C218.018 148.055 239.857 150.91 239.857 150.91Z" fill="url(#paint45_linear_738_3481)"/>
<path d="M236.923 213.456C237.013 213.456 237.102 213.432 237.18 213.387C237.258 213.341 237.322 213.276 237.367 213.197C237.411 213.118 237.434 213.029 237.432 212.939C237.431 212.849 237.405 212.761 237.359 212.683C237.273 212.542 235.213 209.212 231.045 207.201C230.984 207.172 230.919 207.155 230.852 207.151C230.785 207.147 230.718 207.157 230.655 207.179C230.591 207.201 230.533 207.235 230.483 207.28C230.433 207.324 230.392 207.378 230.363 207.439C230.334 207.499 230.317 207.565 230.313 207.632C230.31 207.698 230.319 207.765 230.341 207.829C230.363 207.892 230.398 207.95 230.442 208C230.487 208.05 230.541 208.091 230.601 208.12C234.487 209.995 236.468 213.182 236.488 213.214C236.533 213.288 236.597 213.349 236.674 213.392C236.75 213.434 236.836 213.456 236.923 213.456V213.456Z" fill="url(#paint46_linear_738_3481)"/>
<path d="M252.637 180.076C251.982 184.808 250.049 189.974 246.181 195.46L244.711 194.261C244.711 194.261 246.408 187.375 245.443 179.559C247.829 179.093 250.647 179.573 252.637 180.076Z" fill="url(#paint47_linear_738_3481)"/>
<path d="M237.58 163.45L239.855 150.91C239.855 150.91 255.06 162.532 252.635 180.076C250.646 179.573 247.828 179.093 245.441 179.559C244.749 173.933 242.673 167.817 237.58 163.45Z" fill="url(#paint48_linear_738_3481)"/>
<path d="M209.789 161.194L215.654 173.836C214.705 181.466 210.606 184.767 206.19 186.032C205.972 183.201 205.307 180.423 204.219 177.801C209.867 171.968 209.789 161.194 209.789 161.194Z" fill="url(#paint49_linear_738_3481)"/>
<path d="M204.221 177.796C205.309 180.418 205.974 183.197 206.192 186.027C194.399 190.603 191.279 181.73 191.279 181.73L193.458 181.343C198.381 181.866 201.818 180.279 204.221 177.796Z" fill="url(#paint50_linear_738_3481)"/>
<path d="M215.199 145.589L218.033 156.004C218.108 156.28 218.24 156.537 218.421 156.758C218.603 156.98 218.828 157.16 219.084 157.288C219.34 157.415 219.62 157.487 219.906 157.499C220.191 157.511 220.476 157.463 220.742 157.357C222.136 156.81 223.5 156.187 224.826 155.492C225.161 155.31 225.454 155.061 225.686 154.76C225.919 154.459 226.086 154.113 226.177 153.743C226.268 153.374 226.281 152.99 226.214 152.615C226.148 152.24 226.004 151.884 225.792 151.568L219.901 142.779L215.199 145.589Z" fill="url(#paint51_linear_738_3481)"/>
<path d="M185.873 174.762L258.475 201.186C259.196 201.448 259.854 201.856 260.409 202.385C260.964 202.914 261.403 203.551 261.7 204.258C261.997 204.965 262.144 205.725 262.133 206.491C262.121 207.258 261.952 208.014 261.635 208.711L261.414 209.194C261.132 209.814 260.73 210.373 260.232 210.837C259.733 211.302 259.147 211.663 258.509 211.9C257.87 212.137 257.19 212.245 256.509 212.219C255.828 212.192 255.159 212.031 254.541 211.745L184.045 179.134L185.873 174.762Z" fill="url(#paint52_linear_738_3481)"/>
<path opacity="0.39" d="M152.502 194.06C172.295 194.06 188.341 178.303 188.341 158.866C188.341 139.429 172.295 123.673 152.502 123.673C132.708 123.673 116.662 139.429 116.662 158.866C116.662 178.303 132.708 194.06 152.502 194.06Z" fill="white"/>
<path d="M112.623 158.867C112.623 180.5 130.478 198.028 152.503 198.028C174.529 198.028 192.382 180.494 192.382 158.867C192.382 137.24 174.527 119.706 152.501 119.706C130.476 119.706 112.623 137.239 112.623 158.867ZM118.481 158.867C118.481 140.421 133.713 125.459 152.503 125.459C171.293 125.459 186.525 140.416 186.525 158.867C186.525 177.318 171.293 192.276 152.503 192.276C133.713 192.276 118.481 177.313 118.481 158.867V158.867Z" fill="url(#paint53_linear_738_3481)"/>
<path d="M189.317 163.715C189.282 163.711 189.249 163.7 189.218 163.682C189.188 163.665 189.161 163.641 189.139 163.614C189.118 163.586 189.102 163.554 189.093 163.52C189.084 163.486 189.081 163.451 189.086 163.416C189.203 162.496 189.285 161.565 189.33 160.649C189.329 160.613 189.336 160.577 189.351 160.544C189.365 160.512 189.386 160.482 189.413 160.458C189.439 160.434 189.471 160.416 189.505 160.405C189.539 160.394 189.575 160.391 189.611 160.395C189.682 160.398 189.749 160.43 189.797 160.483C189.844 160.535 189.869 160.605 189.866 160.676C189.82 161.606 189.737 162.551 189.618 163.483C189.609 163.548 189.578 163.607 189.529 163.65C189.48 163.693 189.417 163.717 189.352 163.717C189.341 163.717 189.329 163.717 189.317 163.715V163.715ZM188.814 152.546C188.369 150.06 187.658 147.629 186.695 145.294V145.294C181.029 131.549 167.609 122.667 152.507 122.667C145.507 122.656 138.646 124.617 132.709 128.326C132.649 128.364 132.576 128.377 132.506 128.362C132.436 128.346 132.376 128.304 132.337 128.244C132.299 128.183 132.286 128.11 132.301 128.041C132.317 127.971 132.359 127.91 132.419 127.872C138.443 124.109 145.405 122.12 152.507 122.132C167.829 122.132 181.444 131.144 187.194 145.089C188.17 147.461 188.891 149.929 189.344 152.453C189.357 152.523 189.341 152.595 189.301 152.654C189.261 152.712 189.199 152.752 189.129 152.764C189.113 152.766 189.097 152.766 189.081 152.764C189.018 152.765 188.957 152.744 188.908 152.704C188.859 152.664 188.826 152.608 188.814 152.546V152.546Z" fill="white"/>
<path d="M208.998 137.675C208.973 137.854 211.361 149.562 211.361 149.562L218.018 148.055L217.401 136.623C217.401 136.623 209.431 134.681 208.998 137.675Z" fill="url(#paint54_linear_738_3481)"/>
<path d="M215.906 139.17L216.701 145.164C216.712 145.24 216.712 145.317 216.701 145.393C216.634 145.863 216.285 147.461 214.673 147.005C213.208 146.589 211.866 146.232 210.938 146.517C210.737 146.578 210.566 146.712 210.459 146.892C210.352 147.073 210.316 147.287 210.358 147.492C210.576 148.555 211.11 150.944 211.89 152.948C211.967 153.144 212.115 153.304 212.305 153.396C212.494 153.488 212.711 153.505 212.913 153.445C214.175 153.077 216.815 152.226 218.779 151.045C218.91 150.967 219.017 150.856 219.089 150.722C219.162 150.588 219.197 150.437 219.191 150.285C219.126 148.772 218.95 144.173 219.095 142.885C219.235 141.675 220.72 140.953 221.365 140.689C221.47 140.648 221.564 140.585 221.644 140.505C221.723 140.426 221.785 140.33 221.827 140.226C222.126 139.477 222.538 137.745 220.354 137.039C220.246 137.004 220.146 136.948 220.06 136.873C219.974 136.799 219.904 136.708 219.854 136.605C219.804 136.503 219.775 136.392 219.769 136.279C219.763 136.165 219.78 136.051 219.819 135.945C220.142 135.045 220.279 133.67 218.59 132.914C216.872 132.141 215.591 133.06 214.898 133.804C214.762 133.948 214.58 134.039 214.383 134.062C214.186 134.085 213.987 134.039 213.822 133.93C213.628 133.805 213.37 133.765 213.061 133.956C212.962 134.016 212.851 134.054 212.736 134.068C212.621 134.082 212.504 134.072 212.393 134.038C212.282 134.005 212.18 133.948 212.092 133.872C212.004 133.797 211.933 133.704 211.883 133.599C211.473 132.756 210.634 131.852 208.954 132.14C205.972 132.65 205.634 135.955 206.42 137.892C207.206 139.828 210.409 139.091 212.016 138.115C213.237 137.372 214.821 138.15 215.511 138.566C215.617 138.631 215.708 138.719 215.777 138.823C215.845 138.928 215.889 139.046 215.906 139.17V139.17Z" fill="url(#paint55_linear_738_3481)"/>
<path d="M219.361 145.069C219.361 145.069 218.135 141.636 219.395 140.795C220.656 139.954 222.52 140.391 222.109 142.878C221.598 145.971 219.361 145.069 219.361 145.069Z" fill="url(#paint56_linear_738_3481)"/>
<path d="M245.319 194.053L238.455 193.493L235.482 196.234C235.482 196.234 236.185 197.205 238.38 196.647C240.574 196.089 243.589 195.951 243.589 195.951C243.589 195.951 246.624 197.319 246.661 194.759L245.319 194.053Z" fill="url(#paint57_linear_738_3481)"/>
<path d="M192.153 183.355C191.559 183.819 189.526 182.851 188.281 182.181C187.987 182.024 187.757 181.769 187.63 181.46C187.504 181.151 187.489 180.808 187.589 180.49C187.889 179.545 188.388 178.326 189.003 178.172C190.023 177.917 194.602 181.444 192.153 183.355Z" fill="url(#paint58_linear_738_3481)"/>
<path d="M257.043 210.729C257.072 210.729 257.102 210.724 257.13 210.714C259.966 209.733 260.626 208.057 260.68 206.825C260.758 205.023 259.625 203.348 257.863 202.664L249.146 199.264C249.113 199.251 249.078 199.245 249.043 199.246C249.007 199.247 248.973 199.255 248.941 199.269C248.909 199.283 248.88 199.304 248.855 199.329C248.831 199.354 248.812 199.384 248.799 199.417C248.787 199.45 248.78 199.485 248.781 199.52C248.782 199.555 248.79 199.59 248.804 199.622C248.818 199.654 248.839 199.683 248.864 199.707C248.89 199.732 248.92 199.751 248.952 199.763L257.669 203.163C259.215 203.767 260.213 205.229 260.145 206.801C260.078 208.353 259.005 209.499 256.958 210.207C256.898 210.228 256.848 210.27 256.816 210.324C256.784 210.379 256.772 210.443 256.783 210.505C256.793 210.567 256.825 210.624 256.873 210.665C256.921 210.706 256.982 210.728 257.045 210.729H257.043Z" fill="white"/>
<path d="M246.366 198.736C246.429 198.736 246.49 198.715 246.538 198.675C246.587 198.635 246.62 198.579 246.631 198.517C246.643 198.456 246.632 198.392 246.601 198.337C246.571 198.283 246.522 198.24 246.463 198.218L245.333 197.778C245.3 197.765 245.265 197.759 245.23 197.76C245.195 197.761 245.16 197.768 245.128 197.783C245.096 197.797 245.067 197.817 245.043 197.843C245.018 197.868 244.999 197.898 244.987 197.931C244.974 197.964 244.968 197.999 244.969 198.034C244.97 198.069 244.977 198.104 244.992 198.136C245.006 198.168 245.026 198.197 245.052 198.221C245.077 198.245 245.107 198.264 245.14 198.277L246.27 198.717C246.301 198.73 246.333 198.736 246.366 198.736V198.736Z" fill="white"/>
<path opacity="0.56" d="M96.9241 185.439H16.9047C16.3446 185.439 15.8906 185.893 15.8906 186.453V191.261C15.8906 191.821 16.3446 192.275 16.9047 192.275H96.9241C97.4842 192.275 97.9382 191.821 97.9382 191.261V186.453C97.9382 185.893 97.4842 185.439 96.9241 185.439Z" fill="white"/>
<path opacity="0.56" d="M96.4202 195.861H16.4008C15.8407 195.861 15.3867 196.315 15.3867 196.875V201.682C15.3867 202.242 15.8407 202.696 16.4008 202.696H96.4202C96.9803 202.696 97.4343 202.242 97.4343 201.682V196.875C97.4343 196.315 96.9803 195.861 96.4202 195.861Z" fill="white"/>
<defs>
<linearGradient id="paint0_linear_738_3481" x1="295.29" y1="313.497" x2="104.238" y2="110.117" gradientUnits="userSpaceOnUse">
<stop stop-color="white"/>
<stop offset="1" stop-color="white"/>
</linearGradient>
<linearGradient id="paint1_linear_738_3481" x1="233.716" y1="127.661" x2="245.204" y2="34.6223" gradientUnits="userSpaceOnUse">
<stop stop-color="#53D8FF"/>
<stop offset="1" stop-color="#AAC600"/>
</linearGradient>
<linearGradient id="paint2_linear_738_3481" x1="228.784" y1="133.815" x2="226.343" y2="46.9376" gradientUnits="userSpaceOnUse">
<stop stop-color="#53D8FF"/>
<stop offset="1" stop-color="#AAC600"/>
</linearGradient>
<linearGradient id="paint3_linear_738_3481" x1="230.057" y1="114.958" x2="238.244" y2="3.91487" gradientUnits="userSpaceOnUse">
<stop stop-color="#AAC600"/>
<stop offset="1" stop-color="#3840F7"/>
</linearGradient>
<linearGradient id="paint4_linear_738_3481" x1="133.619" y1="277.288" x2="131.075" y2="226.927" gradientUnits="userSpaceOnUse">
<stop stop-color="#2B3582"/>
<stop offset="1" stop-color="#150E42"/>
</linearGradient>
<linearGradient id="paint5_linear_738_3481" x1="120.02" y1="192.52" x2="149.328" y2="38.1638" gradientUnits="userSpaceOnUse">
<stop stop-color="#2B3582"/>
<stop offset="1" stop-color="#150E42"/>
</linearGradient>
<linearGradient id="paint6_linear_738_3481" x1="128.161" y1="112.616" x2="114.428" y2="335.449" gradientUnits="userSpaceOnUse">
<stop stop-color="#FDC83F"/>
<stop offset="1" stop-color="#D93C65"/>
</linearGradient>
<linearGradient id="paint7_linear_738_3481" x1="134.075" y1="258.02" x2="104.169" y2="323.683" gradientUnits="userSpaceOnUse">
<stop stop-color="#2B3582"/>
<stop offset="1" stop-color="#150E42"/>
</linearGradient>
<linearGradient id="paint8_linear_738_3481" x1="52.4551" y1="111.578" x2="163.931" y2="109.719" gradientUnits="userSpaceOnUse">
<stop stop-color="#F9B776"/>
<stop offset="1" stop-color="#F47960"/>
</linearGradient>
<linearGradient id="paint9_linear_738_3481" x1="56.1114" y1="98.8732" x2="42.5555" y2="144.662" gradientUnits="userSpaceOnUse">
<stop stop-color="#AAC600"/>
<stop offset="1" stop-color="#323A00"/>
</linearGradient>
<linearGradient id="paint10_linear_738_3481" x1="58.5476" y1="75.0149" x2="44.7455" y2="109.126" gradientUnits="userSpaceOnUse">
<stop stop-color="#F9B776"/>
<stop offset="1" stop-color="#F47960"/>
</linearGradient>
<linearGradient id="paint11_linear_738_3481" x1="62.8761" y1="74.4041" x2="42.6511" y2="80.6577" gradientUnits="userSpaceOnUse">
<stop stop-color="#F9B776"/>
<stop offset="1" stop-color="#F47960"/>
</linearGradient>
<linearGradient id="paint12_linear_738_3481" x1="55.2956" y1="60.7529" x2="63.0127" y2="85.0847" gradientUnits="userSpaceOnUse">
<stop stop-color="#2B3582"/>
<stop offset="1" stop-color="#150E42"/>
</linearGradient>
<linearGradient id="paint13_linear_738_3481" x1="61.8607" y1="71.1249" x2="41.6357" y2="77.3785" gradientUnits="userSpaceOnUse">
<stop stop-color="#F9B776"/>
<stop offset="1" stop-color="#F47960"/>
</linearGradient>
<linearGradient id="paint14_linear_738_3481" x1="51.0892" y1="81.1725" x2="58.2451" y2="76.3209" gradientUnits="userSpaceOnUse">
<stop stop-color="#AAC600"/>
<stop offset="1" stop-color="#323A00"/>
</linearGradient>
<linearGradient id="paint15_linear_738_3481" x1="63.2022" y1="48.1226" x2="95.1335" y2="-41.0452" gradientUnits="userSpaceOnUse">
<stop stop-color="#AAC600"/>
<stop offset="1" stop-color="#323A00"/>
</linearGradient>
<linearGradient id="paint16_linear_738_3481" x1="59.6493" y1="64.9182" x2="48.1011" y2="78.1731" gradientUnits="userSpaceOnUse">
<stop stop-color="#AAC600"/>
<stop offset="1" stop-color="#323A00"/>
</linearGradient>
<linearGradient id="paint17_linear_738_3481" x1="48.4824" y1="73.51" x2="63.0373" y2="73.2679" gradientUnits="userSpaceOnUse">
<stop stop-color="#AAC600"/>
<stop offset="1" stop-color="#323A00"/>
</linearGradient>
<linearGradient id="paint18_linear_738_3481" x1="82.7738" y1="121.845" x2="-18.8688" y2="122.988" gradientUnits="userSpaceOnUse">
<stop stop-color="#EA7500"/>
<stop offset="1" stop-color="#8C4600"/>
</linearGradient>
<linearGradient id="paint19_linear_738_3481" x1="65.3025" y1="117.755" x2="73.695" y2="117.755" gradientUnits="userSpaceOnUse">
<stop stop-color="#2B3582"/>
<stop offset="1" stop-color="#150E42"/>
</linearGradient>
<linearGradient id="paint20_linear_738_3481" x1="25.3088" y1="113.223" x2="160.871" y2="110.963" gradientUnits="userSpaceOnUse">
<stop stop-color="#F9B776"/>
<stop offset="1" stop-color="#F47960"/>
</linearGradient>
<linearGradient id="paint21_linear_738_3481" x1="57.1728" y1="70.9779" x2="40.3038" y2="122.792" gradientUnits="userSpaceOnUse">
<stop stop-color="#53D8FF"/>
<stop offset="1" stop-color="#3840F7"/>
</linearGradient>
<linearGradient id="paint22_linear_738_3481" x1="52.3071" y1="69.3946" x2="35.4381" y2="121.209" gradientUnits="userSpaceOnUse">
<stop stop-color="#53D8FF"/>
<stop offset="1" stop-color="#3840F7"/>
</linearGradient>
<linearGradient id="paint23_linear_738_3481" x1="137.537" y1="49.6796" x2="280.17" y2="-26.5212" gradientUnits="userSpaceOnUse">
<stop stop-color="#9AAB2E"/>
<stop offset="1" stop-color="#150E42"/>
</linearGradient>
<linearGradient id="paint24_linear_738_3481" x1="50.6772" y1="178.217" x2="67.9277" y2="133.75" gradientUnits="userSpaceOnUse">
<stop stop-color="#859B00"/>
<stop offset="1" stop-color="#9AAB2E"/>
</linearGradient>
<linearGradient id="paint25_linear_738_3481" x1="33.6955" y1="160.098" x2="22.6625" y2="180.449" gradientUnits="userSpaceOnUse">
<stop stop-color="#FDF53F"/>
<stop offset="1" stop-color="#D93C65"/>
</linearGradient>
<linearGradient id="paint26_linear_738_3481" x1="46.7812" y1="160.098" x2="35.7483" y2="180.449" gradientUnits="userSpaceOnUse">
<stop stop-color="#FDF53F"/>
<stop offset="1" stop-color="#D93C65"/>
</linearGradient>
<linearGradient id="paint27_linear_738_3481" x1="60.7128" y1="160.098" x2="49.6799" y2="180.449" gradientUnits="userSpaceOnUse">
<stop stop-color="#FDF53F"/>
<stop offset="1" stop-color="#D93C65"/>
</linearGradient>
<linearGradient id="paint28_linear_738_3481" x1="74.188" y1="160.099" x2="63.1551" y2="180.449" gradientUnits="userSpaceOnUse">
<stop stop-color="#FDF53F"/>
<stop offset="1" stop-color="#D93C65"/>
</linearGradient>
<linearGradient id="paint29_linear_738_3481" x1="88.0126" y1="160.098" x2="76.9787" y2="180.449" gradientUnits="userSpaceOnUse">
<stop stop-color="#FDF53F"/>
<stop offset="1" stop-color="#D93C65"/>
</linearGradient>
<linearGradient id="paint30_linear_738_3481" x1="155.319" y1="85.4795" x2="138.062" y2="138.555" gradientUnits="userSpaceOnUse">
<stop stop-color="#FDF53F"/>
<stop offset="1" stop-color="#D93C65"/>
</linearGradient>
<linearGradient id="paint31_linear_738_3481" x1="157.036" y1="86.0386" x2="139.779" y2="139.113" gradientUnits="userSpaceOnUse">
<stop stop-color="#FDF53F"/>
<stop offset="1" stop-color="#D93C65"/>
</linearGradient>
<linearGradient id="paint32_linear_738_3481" x1="155.13" y1="136.409" x2="144.385" y2="191.764" gradientUnits="userSpaceOnUse">
<stop stop-color="#FDF53F"/>
<stop offset="1" stop-color="#D93C65"/>
</linearGradient>
<linearGradient id="paint33_linear_738_3481" x1="156.209" y1="136.62" x2="145.464" y2="191.974" gradientUnits="userSpaceOnUse">
<stop stop-color="#FDF53F"/>
<stop offset="1" stop-color="#D93C65"/>
</linearGradient>
<linearGradient id="paint34_linear_738_3481" x1="214.475" y1="114.187" x2="221.638" y2="150.004" gradientUnits="userSpaceOnUse">
<stop stop-color="#FDF53F"/>
<stop offset="1" stop-color="#D93C65"/>
</linearGradient>
<linearGradient id="paint35_linear_738_3481" x1="213.363" y1="114.41" x2="220.527" y2="150.227" gradientUnits="userSpaceOnUse">
<stop stop-color="#FDF53F"/>
<stop offset="1" stop-color="#D93C65"/>
</linearGradient>
<linearGradient id="paint36_linear_738_3481" x1="225.566" y1="223.777" x2="214.278" y2="162.345" gradientUnits="userSpaceOnUse">
<stop stop-color="#FDF53F"/>
<stop offset="1" stop-color="#D93C65"/>
</linearGradient>
<linearGradient id="paint37_linear_738_3481" x1="224.541" y1="223.965" x2="213.253" y2="162.533" gradientUnits="userSpaceOnUse">
<stop stop-color="#FDF53F"/>
<stop offset="1" stop-color="#D93C65"/>
</linearGradient>
<linearGradient id="paint38_linear_738_3481" x1="239.222" y1="269.649" x2="223.421" y2="269.649" gradientUnits="userSpaceOnUse">
<stop stop-color="#53D8FF"/>
<stop offset="1" stop-color="#3840F7"/>
</linearGradient>
<linearGradient id="paint39_linear_738_3481" x1="239.222" y1="266.552" x2="223.866" y2="266.552" gradientUnits="userSpaceOnUse">
<stop stop-color="#2B3582"/>
<stop offset="1" stop-color="#150E42"/>
</linearGradient>
<linearGradient id="paint40_linear_738_3481" x1="237.763" y1="262.228" x2="233.312" y2="262.228" gradientUnits="userSpaceOnUse">
<stop stop-color="#F9B776"/>
<stop offset="1" stop-color="#F47960"/>
</linearGradient>
<linearGradient id="paint41_linear_738_3481" x1="270.721" y1="269.308" x2="264.666" y2="269.308" gradientUnits="userSpaceOnUse">
<stop stop-color="#53D8FF"/>
<stop offset="1" stop-color="#3840F7"/>
</linearGradient>
<linearGradient id="paint42_linear_738_3481" x1="270.677" y1="264.645" x2="261.789" y2="264.645" gradientUnits="userSpaceOnUse">
<stop stop-color="#2B3582"/>
<stop offset="1" stop-color="#150E42"/>
</linearGradient>
<linearGradient id="paint43_linear_738_3481" x1="266.058" y1="258.518" x2="260.738" y2="258.518" gradientUnits="userSpaceOnUse">
<stop stop-color="#F9B776"/>
<stop offset="1" stop-color="#F47960"/>
</linearGradient>
<linearGradient id="paint44_linear_738_3481" x1="255.374" y1="193.145" x2="217.603" y2="324.693" gradientUnits="userSpaceOnUse">
<stop stop-color="#EA7500"/>
<stop offset="0.9" stop-color="#5F2F00"/>
<stop offset="1" stop-color="#512800"/>
</linearGradient>
<linearGradient id="paint45_linear_738_3481" x1="199.165" y1="147.478" x2="321.106" y2="253.536" gradientUnits="userSpaceOnUse">
<stop stop-color="#AAC600"/>
<stop offset="1" stop-color="#323A00"/>
</linearGradient>
<linearGradient id="paint46_linear_738_3481" x1="248.131" y1="238.819" x2="245.582" y2="233.722" gradientUnits="userSpaceOnUse">
<stop stop-color="#CB236D"/>
<stop offset="0.9" stop-color="#59246D"/>
<stop offset="1" stop-color="#4C246D"/>
</linearGradient>
<linearGradient id="paint47_linear_738_3481" x1="241.688" y1="180.983" x2="260.624" y2="197.751" gradientUnits="userSpaceOnUse">
<stop stop-color="#F9B776"/>
<stop offset="1" stop-color="#F47960"/>
</linearGradient>
<linearGradient id="paint48_linear_738_3481" x1="209.331" y1="136.239" x2="330.723" y2="241.819" gradientUnits="userSpaceOnUse">
<stop stop-color="#AAC600"/>
<stop offset="1" stop-color="#323A00"/>
</linearGradient>
<linearGradient id="paint49_linear_738_3481" x1="190.246" y1="158.18" x2="311.638" y2="263.76" gradientUnits="userSpaceOnUse">
<stop stop-color="#AAC600"/>
<stop offset="1" stop-color="#323A00"/>
</linearGradient>
<linearGradient id="paint50_linear_738_3481" x1="206.192" y1="182.569" x2="191.278" y2="182.569" gradientUnits="userSpaceOnUse">
<stop stop-color="#F9B776"/>
<stop offset="1" stop-color="#F47960"/>
</linearGradient>
<linearGradient id="paint51_linear_738_3481" x1="220.688" y1="142.717" x2="220.85" y2="170.565" gradientUnits="userSpaceOnUse">
<stop stop-color="#F9B776"/>
<stop offset="1" stop-color="#F47960"/>
</linearGradient>
<linearGradient id="paint52_linear_738_3481" x1="262.135" y1="193.493" x2="184.045" y2="193.493" gradientUnits="userSpaceOnUse">
<stop stop-color="#9AAB2E"/>
<stop offset="1" stop-color="#626A2B"/>
</linearGradient>
<linearGradient id="paint53_linear_738_3481" x1="192.384" y1="158.866" x2="112.623" y2="158.866" gradientUnits="userSpaceOnUse">
<stop stop-color="#9AAB2E"/>
<stop offset="1" stop-color="#535C18"/>
</linearGradient>
<linearGradient id="paint54_linear_738_3481" x1="212.417" y1="136.952" x2="223.449" y2="156.825" gradientUnits="userSpaceOnUse">
<stop stop-color="#F9B776"/>
<stop offset="1" stop-color="#F47960"/>
</linearGradient>
<linearGradient id="paint55_linear_738_3481" x1="224.148" y1="141.123" x2="176.587" y2="147.136" gradientUnits="userSpaceOnUse">
<stop stop-color="#2B3582"/>
<stop offset="1" stop-color="#150E42"/>
</linearGradient>
<linearGradient id="paint56_linear_738_3481" x1="230.284" y1="153.982" x2="220.978" y2="141.274" gradientUnits="userSpaceOnUse">
<stop stop-color="#F9B776"/>
<stop offset="1" stop-color="#F47960"/>
</linearGradient>
<linearGradient id="paint57_linear_738_3481" x1="234.211" y1="189.428" x2="253.147" y2="206.195" gradientUnits="userSpaceOnUse">
<stop stop-color="#F9B776"/>
<stop offset="1" stop-color="#F47960"/>
</linearGradient>
<linearGradient id="paint58_linear_738_3481" x1="192.863" y1="180.818" x2="187.522" y2="180.818" gradientUnits="userSpaceOnUse">
<stop stop-color="#F9B776"/>
<stop offset="1" stop-color="#F47960"/>
</linearGradient>
</defs>
</svg>
