<svg xmlns="http://www.w3.org/2000/svg" version="1.1" xmlns:xlink="http://www.w3.org/1999/xlink" xmlns:svgjs="http://svgjs.com/svgjs" width="512" height="512" x="0" y="0" viewBox="0 0 512 512" style="enable-background:new 0 0 512 512" xml:space="preserve" class=""><g><path xmlns="http://www.w3.org/2000/svg" d="M384,176a96,96,0,1,0,96,96A96.108,96.108,0,0,0,384,176Zm0,176a80,80,0,1,1,80-80A80.091,80.091,0,0,1,384,352Z" fill="#000000" data-original="#000000" class=""></path><path xmlns="http://www.w3.org/2000/svg" d="M384,248h16a8,8,0,0,0,0-16h-8v-8a8,8,0,0,0-16,0v9.376A24,24,0,0,0,384,280a8,8,0,0,1,0,16H368a8,8,0,0,0,0,16h8v8a8,8,0,0,0,16,0v-9.376A24,24,0,0,0,384,264a8,8,0,0,1,0-16Z" fill="#000000" data-original="#000000" class=""></path><path xmlns="http://www.w3.org/2000/svg" d="M458.948,373.319,296.892,415.6l-36.159-14.464,20.006-4.978a26.106,26.106,0,0,0-7.658-51.4L136.156,352,104,351.976V344a8,8,0,0,0-8-8H43.314l56-56H160a8,8,0,0,0,5.657-2.343L283.313,160H352a8,8,0,0,0,5.657-2.343L472,43.314V72a8,8,0,0,0,16,0V24a8,8,0,0,0-8-8H432a8,8,0,0,0,0,16h28.686l-112,112H280a8,8,0,0,0-5.657,2.343L156.687,264H96a8,8,0,0,0-5.657,2.343l-72,72h0A7.975,7.975,0,0,0,16,344V488a8,8,0,0,0,8,8H96a8,8,0,0,0,8-8v-9.055l48-6.813,134.534,31.655a8,8,0,0,0,4.7-.32l186.5-71.731a30.73,30.73,0,0,0-18.787-58.417ZM88,480H32V352H88Zm48.787-112.011L273.9,360.733a10.105,10.105,0,0,1,9.17,15.292,10.028,10.028,0,0,1-6.206,4.6l-78.8,19.609a8,8,0,1,0,3.864,15.526l32.242-8.023,59.22,23.688a8.008,8.008,0,0,0,4.99.313l164.6-42.94a14.73,14.73,0,0,1,9,28L287.8,487.647,154.2,456.213a7.948,7.948,0,0,0-2.956-.133L104,462.785V367.976Z" fill="#000000" data-original="#000000" class=""></path></g></svg>