<svg width="181" height="181" viewBox="0 0 181 181" fill="none" xmlns="http://www.w3.org/2000/svg">
<g filter="url(#filter0_d_372_3099)">
<circle cx="90.3594" cy="90.3594" r="60" fill="#D9FD00"/>
</g>
<path d="M71.4723 50.4542L71.991 50.4168C73.0882 50.3378 73.7068 49.6014 73.6227 48.4344L73.2569 43.3576L72.5886 43.4057L72.9545 48.4826C73.0127 49.2905 72.6069 49.7809 71.9087 49.8312L71.4299 49.8657L71.4723 50.4542ZM77.6274 50.1209C79.2033 50.0074 80.2463 48.7592 80.1335 47.1932C80.0199 45.6173 78.8087 44.5316 77.2328 44.6451C75.6569 44.7587 74.6139 46.0069 74.7275 47.5828C74.8403 49.1487 76.0515 50.2345 77.6274 50.1209ZM77.5943 49.5218C76.3874 49.6087 75.4849 48.7714 75.3958 47.5346C75.3052 46.2779 76.0791 45.3298 77.2859 45.2429C78.4828 45.1566 79.3747 45.9846 79.4652 47.2414C79.5543 48.4782 78.7912 49.4355 77.5943 49.5218ZM81.3661 43.4249C81.6952 43.4012 81.9373 43.1431 81.9136 42.814C81.8898 42.4848 81.6125 42.2541 81.2834 42.2779C80.9543 42.3016 80.7129 42.5696 80.7366 42.8988C80.7603 43.2279 81.0369 43.4486 81.3661 43.4249ZM81.4897 49.7323L82.148 49.6849L81.7692 44.4285L81.1109 44.4759L81.4897 49.7323ZM85.7786 44.0293C84.8909 44.0933 84.255 44.5903 83.9747 45.1519L83.9114 44.2741L83.283 44.3194L83.6618 49.5758L84.3201 49.5284L84.0829 46.2369C84.0483 45.4774 84.6747 44.7104 85.6722 44.6385C86.7087 44.5538 87.3632 45.1483 87.4401 46.2155L87.6615 49.2876L88.3297 49.2394L88.1004 46.0577C88.0041 44.7211 87.1551 43.9301 85.7786 44.0293ZM96.0756 41.7132L96.3919 46.1018C96.4731 47.2289 95.9194 48.1711 94.6626 48.2617C93.3959 48.353 92.7036 47.5106 92.6216 46.3735L92.3054 41.9849L91.6371 42.0331L91.9541 46.4317C92.0576 47.8679 92.9824 49.0144 94.7079 48.8901C96.4135 48.7672 97.1643 47.4999 97.0608 46.0636L96.7439 41.6651L96.0756 41.7132ZM100.315 48.486C101.502 48.4005 102.25 47.7951 102.181 46.8276C102.042 44.9026 98.9296 45.8187 98.8312 44.4522C98.7931 43.9236 99.189 43.5742 99.9271 43.5211C100.535 43.4772 100.982 43.6957 101.219 44.1999L101.762 43.9403C101.473 43.2693 100.808 42.9463 99.8904 43.0124C98.8132 43.09 98.1232 43.6711 98.1857 44.5389C98.3158 46.3442 101.432 45.478 101.536 46.9242C101.58 47.5327 101.085 47.9091 100.298 47.9659C99.4696 48.0256 98.9059 47.7153 98.6839 47.1398L98.1312 47.4002C98.4473 48.1694 99.2377 48.5636 100.315 48.486Z" fill="#212529"/>
<path d="M88.1358 138.055L87.6527 137.863C86.6308 137.456 85.753 137.849 85.3202 138.936L83.4372 143.665L84.0597 143.913L85.9427 139.184C86.2423 138.431 86.8213 138.167 87.4716 138.425L87.9176 138.603L88.1358 138.055ZM82.4507 135.673C80.9827 135.088 79.5001 135.757 78.9193 137.216C78.3348 138.684 78.9518 140.189 80.4197 140.773C81.8876 141.358 83.3702 140.689 83.9548 139.221C84.5356 137.762 83.9186 136.257 82.4507 135.673ZM82.2194 136.226C83.3436 136.674 83.791 137.821 83.3323 138.973C82.8662 140.144 81.7565 140.66 80.6323 140.212C79.5175 139.768 79.0756 138.634 79.5417 137.464C80.0005 136.312 81.1045 135.783 82.2194 136.226ZM76.1678 140.07C75.8612 139.948 75.5309 140.075 75.4088 140.382C75.2867 140.688 75.4358 141.017 75.7424 141.139C76.0489 141.261 76.383 141.125 76.5051 140.818C76.6271 140.512 76.4744 140.193 76.1678 140.07ZM78.805 134.339L78.1918 134.095L76.2422 138.991L76.8554 139.236L78.805 134.339ZM72.4596 137.604C73.2864 137.933 74.0754 137.763 74.5724 137.379L74.2469 138.197L74.8322 138.43L76.7818 133.534L76.1686 133.29L74.9478 136.356C74.6481 137.054 73.7499 137.472 72.8209 137.102C71.851 136.726 71.521 135.906 71.9168 134.912L73.0563 132.05L72.4338 131.802L71.2537 134.766C70.758 136.011 71.1775 137.093 72.4596 137.604ZM62.1824 135.201L63.8101 131.113C64.2282 130.064 65.1371 129.457 66.3077 129.923C67.4876 130.393 67.7437 131.453 67.322 132.512L65.6942 136.6L66.3167 136.847L67.9481 132.75C68.4808 131.412 68.1481 129.978 66.5408 129.338C64.9521 128.705 63.7241 129.518 63.1914 130.856L61.5599 134.953L62.1824 135.201ZM61.3181 127.258C60.2125 126.818 59.2751 127.036 58.9162 127.938C58.2022 129.731 61.4026 130.262 60.8958 131.535C60.6997 132.028 60.1911 132.169 59.5036 131.896C58.9369 131.67 58.6299 131.279 58.6365 130.722L58.0348 130.719C58.0025 131.449 58.4602 132.029 59.315 132.37C60.3183 132.769 61.1926 132.547 61.5145 131.738C62.1841 130.057 59.0022 129.479 59.5386 128.132C59.7643 127.565 60.3732 127.441 61.1071 127.734C61.8782 128.041 62.2504 128.566 62.1994 129.18L62.8104 129.187C62.8611 128.357 62.3214 127.657 61.3181 127.258Z" fill="#212529"/>
<path d="M125.512 122.016L125.063 122.278C124.111 122.83 123.878 123.763 124.466 124.775L127.021 129.177L127.6 128.84L125.045 124.438C124.638 123.738 124.788 123.119 125.393 122.768L125.809 122.527L125.512 122.016ZM120.127 125.015C118.76 125.809 118.371 127.388 119.159 128.746C119.952 130.112 121.517 130.557 122.883 129.763C124.25 128.97 124.639 127.391 123.846 126.025C123.058 124.667 121.493 124.222 120.127 125.015ZM120.419 125.539C121.466 124.932 122.644 125.289 123.267 126.361C123.899 127.451 123.62 128.642 122.573 129.25C121.535 129.852 120.371 129.499 119.738 128.409C119.116 127.337 119.382 126.142 120.419 125.539ZM119.704 132.673C119.418 132.838 119.314 133.177 119.48 133.462C119.645 133.747 119.996 133.833 120.281 133.667C120.566 133.502 120.666 133.155 120.5 132.87C120.334 132.584 119.989 132.507 119.704 132.673ZM116.826 127.059L116.256 127.39L118.901 131.948L119.472 131.616L116.826 127.059ZM115.473 134.065C116.243 133.618 116.596 132.892 116.602 132.265L117.044 133.026L117.589 132.71L114.943 128.152L114.372 128.483L116.029 131.337C116.393 132.005 116.166 132.969 115.302 133.471C114.407 134.001 113.558 133.754 113.021 132.829L111.475 130.165L110.895 130.501L112.497 133.26C113.17 134.419 114.28 134.758 115.473 134.065ZM107.235 140.662L105.026 136.857C104.459 135.88 104.543 134.79 105.633 134.157C106.731 133.52 107.723 133.973 108.295 134.959L110.504 138.765L111.084 138.428L108.87 134.614C108.147 133.369 106.813 132.744 105.317 133.613C103.838 134.471 103.719 135.939 104.442 137.185L106.656 140.999L107.235 140.662ZM100.455 136.435C99.4256 137.032 99.0185 137.904 99.5055 138.743C100.474 140.413 102.87 138.224 103.557 139.409C103.823 139.868 103.621 140.355 102.981 140.727C102.453 141.033 101.956 141.033 101.522 140.683L101.148 141.155C101.702 141.631 102.441 141.63 103.237 141.168C104.171 140.626 104.536 139.801 104.099 139.048C103.191 137.483 100.77 139.628 100.043 138.374C99.7363 137.846 100.015 137.291 100.699 136.895C101.416 136.478 102.059 136.509 102.511 136.929L102.893 136.453C102.272 135.9 101.389 135.893 100.455 136.435Z" fill="#212529"/>
<path d="M45.5193 80.767L45.814 80.3386C46.4375 79.4324 46.2488 78.4893 45.2849 77.8262L41.0915 74.9411L40.7117 75.4931L44.9052 78.3782C45.5725 78.8373 45.7021 79.4605 45.3053 80.0372L45.0332 80.4326L45.5193 80.767ZM49.1032 75.7519C49.9988 74.4502 49.6753 72.8561 48.3819 71.9662C47.0802 71.0707 45.4758 71.3384 44.5803 72.6401C43.6847 73.9418 44.0081 75.5359 45.3098 76.4315C46.6033 77.3214 48.2077 77.0536 49.1032 75.7519ZM48.6146 75.4036C47.9287 76.4004 46.7111 76.5823 45.6896 75.8795C44.6515 75.1653 44.3944 73.9688 45.0802 72.972C45.7604 71.9834 46.9641 71.804 48.0021 72.5182C49.0237 73.221 49.2947 74.4149 48.6146 75.4036ZM46.2087 68.6501C46.3957 68.3782 46.3454 68.028 46.0735 67.8409C45.8016 67.6539 45.4483 67.7264 45.2613 67.9982C45.0742 68.2701 45.1328 68.626 45.4047 68.8131C45.6765 69.0001 46.0216 68.9219 46.2087 68.6501ZM51.2119 72.4928L51.586 71.9491L47.2443 68.962L46.8702 69.5057L51.2119 72.4928ZM49.4366 65.5814C48.9322 66.3146 48.9231 67.1217 49.1866 67.6914L48.4616 67.1926L48.1046 67.7116L52.4463 70.6987L52.8204 70.1549L50.1016 68.2845C49.4868 67.8372 49.2791 66.8689 49.8459 66.0451C50.4271 65.1826 51.3002 65.0428 52.1817 65.6493L54.7191 67.395L55.0989 66.843L52.4708 65.0349C51.3668 64.2754 50.2188 64.4445 49.4366 65.5814ZM54.0588 56.0931L57.6837 58.5871C58.6147 59.2275 59.0047 60.2485 58.2906 61.2865C57.5707 62.3328 56.4804 62.3474 55.5412 61.7012L51.9163 59.2073L51.5365 59.7593L55.1697 62.2589C56.356 63.0751 57.829 63.0689 58.8096 61.6436C59.7788 60.2348 59.2581 58.8569 58.0717 58.0407L54.4385 55.5411L54.0588 56.0931ZM61.9959 57.0123C62.6704 56.0319 62.6651 55.0693 61.8659 54.5195C60.2759 53.4256 59.0476 56.4283 57.9189 55.6517C57.4823 55.3513 57.4567 54.8239 57.8761 54.2143C58.2219 53.7117 58.6716 53.4992 59.2133 53.6292L59.3495 53.0431C58.645 52.8497 57.9774 53.1673 57.4559 53.9252C56.8438 54.815 56.8667 55.7168 57.5834 56.2099C59.0746 57.2358 60.3441 54.2615 61.5387 55.0833C62.0412 55.4291 62.0266 56.0502 61.5788 56.701C61.1084 57.3848 60.514 57.6313 59.9259 57.4452L59.784 58.0395C60.5823 58.2731 61.3838 57.902 61.9959 57.0123Z" fill="#212529"/>
<path d="M111.72 51.8113L112.075 52.191C112.827 52.9943 113.788 53.0122 114.643 52.2129L118.36 48.7357L117.902 48.2464L114.185 51.7237C113.593 52.277 112.957 52.2699 112.479 51.7587L112.151 51.4082L111.72 51.8113ZM115.85 56.3872C116.929 57.541 118.556 57.567 119.702 56.4944C120.856 55.415 120.939 53.7905 119.859 52.6367C118.78 51.4829 117.153 51.4569 116 52.5363C114.853 53.6089 114.771 55.2334 115.85 56.3872ZM116.295 55.9846C115.468 55.101 115.552 53.8727 116.457 53.0256C117.377 52.1648 118.601 52.1702 119.428 53.0539C120.248 53.9302 120.165 55.1443 119.245 56.0051C118.339 56.8522 117.115 56.8609 116.295 55.9846ZM123.407 55.0828C123.633 55.3238 123.986 55.3497 124.227 55.1243C124.468 54.8988 124.473 54.5382 124.247 54.2972C124.022 54.0562 123.661 54.0371 123.42 54.2626C123.179 54.488 123.182 54.8418 123.407 55.0828ZM118.581 59.1457L119.032 59.6277L122.881 56.0275L122.43 55.5455L118.581 59.1457ZM125.712 58.8937C125.104 58.2437 124.318 58.0619 123.705 58.1971L124.348 57.5959L123.917 57.1358L120.069 60.736L120.52 61.218L122.93 58.9636C123.498 58.459 124.489 58.4637 125.172 59.194C125.89 59.9467 125.839 60.8294 125.058 61.5603L122.808 63.6644L123.266 64.1537L125.596 61.9745C126.574 61.059 126.655 59.9014 125.712 58.8937ZM133.989 65.4428L130.776 68.4487C129.95 69.2207 128.87 69.3827 128.009 68.4626C127.141 67.5352 127.361 66.4671 128.193 65.6883L131.407 62.6824L130.949 62.1931L127.728 65.2058C126.677 66.1896 126.367 67.6296 127.549 68.893C128.717 70.1418 130.174 69.9286 131.226 68.9448L134.447 65.9321L133.989 65.4428ZM131.389 72.9983C132.202 73.8673 133.143 74.0685 133.852 73.4058C135.261 72.0873 132.592 70.2437 133.592 69.3078C133.979 68.9458 134.5 69.0339 135.005 69.5743C135.422 70.0197 135.533 70.5045 135.29 71.0058L135.833 71.2645C136.173 70.6179 136.006 69.8977 135.378 69.2259C134.64 68.4372 133.754 68.2661 133.119 68.8605C131.797 70.097 134.43 71.9747 133.371 72.9653C132.926 73.382 132.322 73.2346 131.783 72.6576C131.216 72.0515 131.102 71.4181 131.41 70.8836L130.86 70.6176C130.461 71.3472 130.651 72.2096 131.389 72.9983Z" fill="#212529"/>
<path d="M135.547 83.2056L135.471 83.72C135.311 84.8084 135.896 85.5715 137.054 85.7416L142.09 86.4815L142.187 85.8186L137.151 85.0787C136.35 84.961 135.959 84.4588 136.061 83.7662L136.13 83.2913L135.547 83.2056ZM134.542 89.2872C134.312 90.8505 135.306 92.1385 136.859 92.3667C138.422 92.5964 139.744 91.6485 139.974 90.0852C140.203 88.522 139.21 87.234 137.647 87.0043C136.093 86.7761 134.772 87.724 134.542 89.2872ZM135.134 89.3844C135.31 88.1872 136.323 87.4869 137.549 87.6672C138.796 87.8503 139.554 88.8108 139.379 90.0079C139.204 91.1952 138.203 91.887 136.956 91.7039C135.73 91.5236 134.96 90.5716 135.134 89.3844ZM140.272 94.3845C140.224 94.711 140.424 95.0031 140.75 95.0511C141.077 95.099 141.362 94.8781 141.41 94.5517C141.458 94.2252 141.248 93.9316 140.922 93.8836C140.595 93.8356 140.32 94.058 140.272 94.3845ZM134.087 93.1423L133.991 93.7953L139.205 94.5613L139.301 93.9083L134.087 93.1423ZM138.728 98.5622C138.858 97.6817 138.51 96.9534 138.022 96.5583L138.893 96.6862L138.984 96.0629L133.77 95.2969L133.674 95.9499L136.939 96.4295C137.688 96.5598 138.302 97.3372 138.156 98.3266C138.015 99.357 137.293 99.8675 136.235 99.712L133.187 99.2643L133.09 99.9272L136.246 100.391C137.572 100.586 138.528 99.9276 138.728 98.5622ZM138.765 109.116L134.411 108.477C133.293 108.313 132.493 107.568 132.676 106.322C132.861 105.065 133.833 104.571 134.961 104.737L139.314 105.377L139.411 104.714L135.048 104.073C133.624 103.863 132.304 104.519 132.053 106.23C131.804 107.922 132.879 108.929 134.304 109.138L138.667 109.779L138.765 109.116ZM131.236 111.792C131.063 112.969 131.492 113.831 132.452 113.972C134.361 114.252 134.139 111.016 135.495 111.215C136.019 111.292 136.275 111.754 136.167 112.486C136.078 113.09 135.769 113.479 135.225 113.601L135.361 114.187C136.079 114.05 136.538 113.471 136.672 112.56C136.829 111.492 136.41 110.693 135.55 110.566C133.759 110.303 133.931 113.532 132.497 113.322C131.893 113.233 131.632 112.669 131.747 111.887C131.868 111.066 132.293 110.583 132.903 110.49L132.768 109.895C131.948 110.037 131.393 110.723 131.236 111.792Z" fill="#212529"/>
<path d="M53.542 120.328L53.39 119.831C53.0686 118.779 52.213 118.34 51.094 118.682L46.2261 120.169L46.4219 120.81L51.2898 119.322C52.0644 119.086 52.6329 119.372 52.8375 120.042L52.9777 120.501L53.542 120.328ZM51.8463 114.402C51.3847 112.891 49.9356 112.152 48.4341 112.611C46.923 113.072 46.1343 114.495 46.5959 116.006C47.0576 117.517 48.5067 118.256 50.0178 117.794C51.5192 117.335 52.308 115.913 51.8463 114.402ZM51.2696 114.568C51.6232 115.725 51.0079 116.791 49.822 117.153C48.617 117.522 47.5204 116.978 47.1668 115.821C46.8162 114.674 47.4248 113.62 48.6299 113.252C49.8157 112.889 50.919 113.42 51.2696 114.568ZM44.4859 112.248C44.3895 111.933 44.084 111.754 43.7684 111.851C43.4528 111.947 43.2897 112.269 43.3861 112.584C43.4825 112.9 43.7976 113.076 44.1132 112.979C44.4288 112.883 44.5823 112.564 44.4859 112.248ZM50.6074 110.723L50.4145 110.092L45.3745 111.632L45.5674 112.263L50.6074 110.723ZM44.0924 107.812C44.3525 108.663 44.9786 109.172 45.5886 109.321L44.747 109.578L44.931 110.18L49.9711 108.64L49.7782 108.009L46.6222 108.973C45.8896 109.176 45.0023 108.736 44.7101 107.78C44.3967 106.788 44.8305 106.018 45.8538 105.705L48.7994 104.805L48.6036 104.165L45.5528 105.097C44.2713 105.488 43.6892 106.492 44.0924 107.812ZM39.5414 98.2894L43.7494 97.0037C44.8301 96.6735 45.872 97.0035 46.2401 98.2085C46.6112 99.4231 45.9441 100.286 44.8539 100.619L40.6459 101.904L40.8417 102.545L45.0592 101.257C46.4364 100.836 47.3481 99.6789 46.8426 98.0244C46.343 96.3891 44.9404 95.9393 43.5632 96.36L39.3457 97.6486L39.5414 98.2894ZM45.2001 92.6482C44.8524 91.5101 44.0955 90.9153 43.1679 91.1987C41.3221 91.7627 42.9082 94.5927 41.598 94.993C41.0911 95.1479 40.6624 94.8397 40.4462 94.132C40.2679 93.5486 40.3814 93.0643 40.8202 92.7211L40.4462 92.2499C39.8565 92.681 39.6896 93.4012 39.9584 94.281C40.274 95.3139 40.9942 95.8572 41.8262 95.603C43.5572 95.0741 42.0189 92.2294 43.4056 91.8058C43.989 91.6275 44.4661 92.0255 44.6969 92.781C44.9394 93.5748 44.7625 94.1935 44.2508 94.538L44.6278 95.0189C45.3073 94.5394 45.5156 93.6811 45.2001 92.6482Z" fill="#212529"/>
<defs>
<filter id="filter0_d_372_3099" x="0.359375" y="0.359375" width="180" height="180" filterUnits="userSpaceOnUse" color-interpolation-filters="sRGB">
<feFlood flood-opacity="0" result="BackgroundImageFix"/>
<feColorMatrix in="SourceAlpha" type="matrix" values="0 0 0 0 0 0 0 0 0 0 0 0 0 0 0 0 0 0 127 0" result="hardAlpha"/>
<feOffset/>
<feGaussianBlur stdDeviation="15"/>
<feComposite in2="hardAlpha" operator="out"/>
<feColorMatrix type="matrix" values="0 0 0 0 0.6 0 0 0 0 0.984314 0 0 0 0 0.301961 0 0 0 0.1 0"/>
<feBlend mode="normal" in2="BackgroundImageFix" result="effect1_dropShadow_372_3099"/>
<feBlend mode="normal" in="SourceGraphic" in2="effect1_dropShadow_372_3099" result="shape"/>
</filter>
</defs>
</svg>
