<svg width="1887" height="391" viewBox="0 0 1887 391" fill="none" xmlns="http://www.w3.org/2000/svg">
<path d="M57.1219 301.903L59.8349 300.622L57.4906 295.655L54.5783 300.312L57.1219 301.903ZM74.7191 339.188L72.0061 340.469L74.3929 345.526L77.2864 340.741L74.7191 339.188ZM100.48 296.581L101.98 293.982L99.4338 292.513L97.9131 295.028L100.48 296.581ZM161 331.5L159.501 334.098L161.618 335.32L163.242 333.493L161 331.5ZM197.961 289.92L197.176 287.025L196.313 287.259L195.718 287.927L197.961 289.92ZM222.5 283.27L223.285 286.166L224.717 285.777L225.278 284.403L222.5 283.27ZM242.598 234.002L245.332 232.766L242.457 226.405L239.821 232.869L242.598 234.002ZM258.845 269.949L256.111 271.185L257.941 275.234L261.013 272.023L258.845 269.949ZM287.5 240L290.221 238.737C289.804 237.838 288.969 237.203 287.991 237.04C287.013 236.878 286.018 237.21 285.332 237.926L287.5 240ZM307.585 283.27L304.864 284.533L304.879 284.565L304.895 284.597L307.585 283.27ZM322 312.5L319.309 313.827L321.795 318.868L324.6 313.997L322 312.5ZM346.5 269.949L347.877 267.284L345.331 265.968L343.9 268.453L346.5 269.949ZM392.881 293.915L391.504 296.58L394.992 298.382L395.814 294.543L392.881 293.915ZM405.5 235L402.697 233.932L402.615 234.147L402.567 234.372L405.5 235ZM428.085 175.427L429.886 173.028L426.688 170.629L425.278 174.369L428.085 175.427ZM471.5 208L469.7 210.4L470.108 210.706L470.595 210.86L471.5 208ZM524.215 224.685L523.31 227.546L526.041 228.41L527.031 225.721L524.215 224.685ZM539 184.5L541.329 182.61L538.006 178.514L536.185 183.464L539 184.5ZM577.017 231.346L574.687 233.236L578.787 238.287L579.967 231.89L577.017 231.346ZM584 193.5L585.395 190.844L581.789 188.949L581.05 192.956L584 193.5ZM613.5 209L612.105 211.656L615.66 213.524L616.443 209.584L613.5 209ZM624.396 154.118L625.897 151.521L622.27 149.425L621.454 153.534L624.396 154.118ZM664 177L662.499 179.598L665.331 181.234L666.717 178.272L664 177ZM716.465 64.9185L719.352 64.1061L717.168 56.3398L713.747 63.6466L716.465 64.9185ZM751.669 190.066L748.781 190.878L749.019 191.723L749.675 192.307L751.669 190.066ZM780.101 215.369L778.106 217.61L782.089 221.154L783.052 215.911L780.101 215.369ZM791 156L792.462 153.38L788.805 151.34L788.049 155.458L791 156ZM823.419 174.089L821.957 176.709L823.424 177.528L824.888 176.705L823.419 174.089ZM851.85 158.113L853.32 160.728L854.033 160.327L854.444 159.62L851.85 158.113ZM878.932 111.52L881.606 110.161L879.108 105.248L876.338 110.013L878.932 111.52ZM892.467 138.142L889.793 139.501L890.264 140.428L891.207 140.864L892.467 138.142ZM915.487 148.796L914.227 151.519L917.144 152.869L918.29 149.865L915.487 148.796ZM935.795 95.5438L938.122 93.6505L934.843 89.6204L932.992 94.4748L935.795 95.5438ZM957.454 122.165L959.937 120.481L959.864 120.373L959.781 120.272L957.454 122.165ZM987.247 166.101L984.764 167.785L987.247 171.447L989.73 167.784L987.247 166.101ZM1014.32 126.159L1016.8 127.842L1017.12 127.367L1017.25 126.807L1014.32 126.159ZM1021.09 95.5438L1020.28 92.6556L1018.55 93.1416L1018.16 94.8958L1021.09 95.5438ZM1049.52 87.5554L1050.33 90.4436L1051.41 90.1414L1052.03 89.2093L1049.52 87.5554ZM1067.12 60.9243L1069.83 59.6474L1067.56 54.8145L1064.62 59.2704L1067.12 60.9243ZM1117.22 167.439L1114.51 168.716L1117.64 175.389L1120.06 168.42L1117.22 167.439ZM1131.5 126.159L1128.8 124.842L1128.72 125.006L1128.66 125.178L1131.5 126.159ZM1156.5 75L1158.67 72.9286L1155.7 69.8126L1153.8 73.6828L1156.5 75ZM1186.27 106.188L1189.07 105.122L1188.86 104.555L1188.44 104.117L1186.27 106.188ZM1221.46 198.723L1218.66 199.79L1221.74 207.887L1224.33 199.619L1221.46 198.723ZM1240 139.5L1238.99 136.676L1237.58 137.18L1237.14 138.604L1240 139.5ZM1259.5 132.5L1260.51 135.324L1261.88 134.834L1262.34 133.461L1259.5 132.5ZM1283 63L1285.72 61.7243L1282.55 54.9778L1280.16 62.0391L1283 63ZM1335.19 174.089L1332.48 175.365L1335.55 181.908L1338.01 175.111L1335.19 174.089ZM1370.4 76.901L1371.19 74.0077L1368.52 73.2756L1367.57 75.8793L1370.4 76.901ZM1420 90.5L1421.07 87.6988L1420.94 87.6459L1420.79 87.6068L1420 90.5ZM1467.88 108.854L1466.8 111.656L1470.11 112.924L1470.82 109.451L1467.88 108.854ZM1478.5 56.5L1477.37 53.7207L1475.88 54.3264L1475.56 55.9033L1478.5 56.5ZM1500.37 47.6137L1501.5 50.393L1502.19 50.1135L1502.66 49.5453L1500.37 47.6137ZM1532.86 9L1535.46 7.50224L1533.32 3.79211L1530.57 7.06841L1532.86 9ZM1578.89 88.8835L1576.29 90.3813L1580.15 97.0792L1581.82 89.5313L1578.89 88.8835ZM1585.66 58.2582L1587.27 55.7273L1583.66 53.4265L1582.73 57.6104L1585.66 58.2582ZM1631.69 87.5554L1630.08 90.0863L1633.31 92.1433L1634.54 88.5126L1631.69 87.5554ZM1644 51L1644.31 48.0159L1641.92 47.7691L1641.16 50.0428L1644 51ZM1658.5 52.5L1658.19 55.4841L1659.91 55.6622L1660.93 54.2609L1658.5 52.5ZM1673 32.5L1675.33 30.6161L1672.87 27.5647L1670.57 30.7391L1673 32.5ZM1703.45 70.2407L1701.12 72.1246L1704.03 75.7295L1706.13 71.6008L1703.45 70.2407ZM1718.35 40.9534L1715.81 39.3625L1715.74 39.475L1715.68 39.5933L1718.35 40.9534ZM1729.17 23.6486L1731.23 21.4623L1728.57 18.9618L1726.63 22.0577L1729.17 23.6486ZM1790.1 80.8952L1788.04 83.0815L1791.36 86.1997L1792.92 81.9198L1790.1 80.8952ZM1803.64 43.6195L1802.25 40.9629L1801.22 41.5028L1800.82 42.5949L1803.64 43.6195ZM1823.95 32.9651L1825.23 30.2521L1823.88 29.6143L1822.56 30.3085L1823.95 32.9651ZM1857.8 48.9418L1856.52 51.6547L1858.81 52.7395L1860.26 50.6512L1857.8 48.9418ZM5.54357 390.037L59.6655 303.494L54.5783 300.312L0.456428 386.856L5.54357 390.037ZM54.4089 303.183L72.0061 340.469L77.4321 337.908L59.8349 300.622L54.4089 303.183ZM77.2864 340.741L103.048 298.133L97.9131 295.028L72.1519 337.636L77.2864 340.741ZM98.981 299.179L159.501 334.098L162.499 328.902L101.98 293.982L98.981 299.179ZM163.242 333.493L200.203 291.913L195.718 287.927L158.758 329.507L163.242 333.493ZM198.745 292.816L223.285 286.166L221.715 280.374L197.176 287.025L198.745 292.816ZM225.278 284.403L245.376 235.135L239.821 232.869L219.722 282.137L225.278 284.403ZM239.865 235.237L256.111 271.185L261.579 268.714L245.332 232.766L239.865 235.237ZM261.013 272.023L289.668 242.074L285.332 237.926L256.678 267.876L261.013 272.023ZM284.779 241.263L304.864 284.533L310.306 282.007L290.221 238.737L284.779 241.263ZM304.895 284.597L319.309 313.827L324.691 311.173L310.276 281.943L304.895 284.597ZM324.6 313.997L349.1 271.446L343.9 268.453L319.4 311.003L324.6 313.997ZM345.123 272.615L391.504 296.58L394.258 291.249L347.877 267.284L345.123 272.615ZM395.814 294.543L408.433 235.628L402.567 234.372L389.947 293.286L395.814 294.543ZM408.303 236.068C414.304 220.315 419.952 205.42 424.098 194.463C426.172 188.984 427.87 184.49 429.05 181.366C429.64 179.804 430.101 178.584 430.414 177.754C430.57 177.34 430.69 177.022 430.77 176.809C430.811 176.702 430.841 176.622 430.862 176.567C430.872 176.54 430.879 176.52 430.885 176.506C430.887 176.499 430.889 176.494 430.89 176.491C430.891 176.489 430.892 176.488 430.892 176.487C430.892 176.487 430.892 176.486 430.892 176.486C430.892 176.486 430.892 176.486 428.085 175.427C425.278 174.369 425.278 174.369 425.278 174.369C425.278 174.369 425.278 174.37 425.278 174.37C425.277 174.371 425.277 174.372 425.276 174.374C425.275 174.377 425.273 174.382 425.27 174.389C425.265 174.403 425.258 174.423 425.247 174.45C425.227 174.504 425.197 174.585 425.156 174.691C425.076 174.905 424.957 175.221 424.8 175.636C424.487 176.465 424.027 177.684 423.437 179.246C422.258 182.369 420.56 186.862 418.487 192.339C414.341 203.294 408.696 218.185 402.697 233.932L408.303 236.068ZM426.285 177.827L469.7 210.4L473.3 205.6L429.886 173.028L426.285 177.827ZM470.595 210.86L523.31 227.546L525.12 221.825L472.405 205.14L470.595 210.86ZM527.031 225.721L541.815 185.536L536.185 183.464L521.4 223.65L527.031 225.721ZM536.671 186.39L574.687 233.236L579.346 229.455L541.329 182.61L536.671 186.39ZM579.967 231.89L586.95 194.044L581.05 192.956L574.067 230.801L579.967 231.89ZM582.605 196.156L612.105 211.656L614.895 206.344L585.395 190.844L582.605 196.156ZM616.443 209.584L627.339 154.703L621.454 153.534L610.557 208.416L616.443 209.584ZM622.896 156.716L662.499 179.598L665.501 174.402L625.897 151.521L622.896 156.716ZM666.717 178.272L719.182 66.1903L713.747 63.6466L661.283 175.728L666.717 178.272ZM713.577 65.7308L748.781 190.878L754.557 189.254L719.352 64.1061L713.577 65.7308ZM749.675 192.307L778.106 217.61L782.095 213.128L753.664 187.825L749.675 192.307ZM783.052 215.911L793.951 156.542L788.049 155.458L777.15 214.827L783.052 215.911ZM789.538 158.62L821.957 176.709L824.88 171.469L792.462 153.38L789.538 158.62ZM824.888 176.705L853.32 160.728L850.381 155.497L821.949 171.474L824.888 176.705ZM854.444 159.62L881.525 113.028L876.338 110.013L849.257 156.605L854.444 159.62ZM876.258 112.88L889.793 139.501L895.141 136.782L881.606 110.161L876.258 112.88ZM891.207 140.864L914.227 151.519L916.747 146.074L893.727 135.419L891.207 140.864ZM918.29 149.865L938.598 96.6128L932.992 94.4748L912.684 147.727L918.29 149.865ZM933.468 97.4371L955.127 124.058L959.781 120.272L938.122 93.6505L933.468 97.4371ZM954.971 123.849L984.764 167.785L989.73 164.417L959.937 120.481L954.971 123.849ZM989.73 167.784L1016.8 127.842L1011.83 124.476L984.763 164.418L989.73 167.784ZM1017.25 126.807L1024.02 96.1918L1018.16 94.8958L1011.39 125.511L1017.25 126.807ZM1021.9 98.432L1050.33 90.4436L1048.71 84.6673L1020.28 92.6556L1021.9 98.432ZM1052.03 89.2093L1069.62 62.5782L1064.62 59.2704L1047.02 85.9016L1052.03 89.2093ZM1064.4 62.2012L1114.51 168.716L1119.94 166.162L1069.83 59.6474L1064.4 62.2012ZM1120.06 168.42L1134.34 127.14L1128.66 125.178L1114.39 166.458L1120.06 168.42ZM1134.2 127.476L1159.2 76.3172L1153.8 73.6828L1128.8 124.842L1134.2 127.476ZM1154.33 77.0714L1184.1 108.26L1188.44 104.117L1158.67 72.9286L1154.33 77.0714ZM1183.46 107.255L1218.66 199.79L1224.27 197.657L1189.07 105.122L1183.46 107.255ZM1224.33 199.619L1242.86 140.396L1237.14 138.604L1218.6 197.827L1224.33 199.619ZM1241.01 142.324L1260.51 135.324L1258.49 129.676L1238.99 136.676L1241.01 142.324ZM1262.34 133.461L1285.84 63.9609L1280.16 62.0391L1256.66 131.539L1262.34 133.461ZM1280.28 64.2757L1332.48 175.365L1337.91 172.814L1285.72 61.7243L1280.28 64.2757ZM1338.01 175.111L1373.22 77.9227L1367.57 75.8793L1332.37 173.068L1338.01 175.111ZM1369.6 79.7942L1419.21 93.3932L1420.79 87.6068L1371.19 74.0077L1369.6 79.7942ZM1418.93 93.3012L1466.8 111.656L1468.95 106.053L1421.07 87.6988L1418.93 93.3012ZM1470.82 109.451L1481.44 57.0967L1475.56 55.9033L1464.94 108.258L1470.82 109.451ZM1479.63 59.2793L1501.5 50.393L1499.24 44.8344L1477.37 53.7207L1479.63 59.2793ZM1502.66 49.5453L1535.16 10.9316L1530.57 7.06841L1498.07 45.6821L1502.66 49.5453ZM1530.26 10.4978L1576.29 90.3813L1581.49 87.3857L1535.46 7.50224L1530.26 10.4978ZM1581.82 89.5313L1588.59 58.906L1582.73 57.6104L1575.96 88.2357L1581.82 89.5313ZM1584.05 60.789L1630.08 90.0863L1633.3 85.0246L1587.27 55.7273L1584.05 60.789ZM1634.54 88.5126L1646.84 51.9572L1641.16 50.0428L1628.85 86.5982L1634.54 88.5126ZM1643.69 53.9841L1658.19 55.4841L1658.81 49.5159L1644.31 48.0159L1643.69 53.9841ZM1660.93 54.2609L1675.43 34.2609L1670.57 30.7391L1656.07 50.7391L1660.93 54.2609ZM1670.67 34.3839L1701.12 72.1246L1705.79 68.3568L1675.33 30.6161L1670.67 34.3839ZM1706.13 71.6008L1721.02 42.3135L1715.68 39.5933L1700.78 68.8806L1706.13 71.6008ZM1720.89 42.5443L1731.72 25.2396L1726.63 22.0577L1715.81 39.3625L1720.89 42.5443ZM1727.12 25.8349L1788.04 83.0815L1792.15 78.7089L1731.23 21.4623L1727.12 25.8349ZM1792.92 81.9198L1806.46 44.6441L1800.82 42.5949L1787.28 79.8705L1792.92 81.9198ZM1805.04 46.2761L1825.35 35.6216L1822.56 30.3085L1802.25 40.9629L1805.04 46.2761ZM1822.67 35.678L1856.52 51.6547L1859.08 46.2288L1825.23 30.2521L1822.67 35.678ZM1860.26 50.6512L1892.47 4.20948L1887.53 0.790522L1855.33 47.2323L1860.26 50.6512Z" fill="#99FB4D"/>
</svg>
