<svg xmlns="http://www.w3.org/2000/svg" width="30.526" height="20" viewBox="0 0 30.526 20"><g transform="translate(0 -88.275)"><path d="M28.24,88.276H2.286A2.286,2.286,0,0,0,0,90.562V105.99a2.286,2.286,0,0,0,2.286,2.286H28.24a2.286,2.286,0,0,0,2.286-2.286V90.562A2.286,2.286,0,0,0,28.24,88.276Z" transform="translate(0 -0.001)" fill="#f5f5f5"/><g transform="translate(0 88.275)"><path d="M2.109,89.814H32.384a2.287,2.287,0,0,0-2.16-1.538H4.269A2.287,2.287,0,0,0,2.109,89.814Z" transform="translate(-1.983 -88.276)" fill="#ff4b55"/><rect width="30.526" height="1.538" transform="translate(0 6.154)" fill="#ff4b55"/><rect width="30.526" height="1.538" transform="translate(0 3.077)" fill="#ff4b55"/><path d="M0,244.11a.526.526,0,0,0,.526.526h30V243.1H0Z" transform="translate(0 -233.867)" fill="#ff4b55"/><rect width="30.526" height="1.538" transform="translate(0 15.385)" fill="#ff4b55"/><path d="M32.384,397.92H2.109a2.287,2.287,0,0,0,2.16,1.538H30.223A2.287,2.287,0,0,0,32.384,397.92Z" transform="translate(-1.983 -379.459)" fill="#ff4b55"/><rect width="30.526" height="1.538" transform="translate(0 12.308)" fill="#ff4b55"/></g><path d="M.526,99.044H13.684a.526.526,0,0,0,.526-.526V88.8a.526.526,0,0,0-.526-.526H2.286A2.286,2.286,0,0,0,0,90.561v7.957A.526.526,0,0,0,.526,99.044Z" fill="#41479b"/><g transform="translate(0.85 89.449)"><path d="M14.881,108l.116.349.368,0a.05.05,0,0,1,.029.09l-.3.219.111.351a.05.05,0,0,1-.076.055l-.3-.214-.3.214a.05.05,0,0,1-.076-.055l.111-.351-.3-.219a.05.05,0,0,1,.029-.09l.368,0,.116-.349A.05.05,0,0,1,14.881,108Z" transform="translate(-14.253 -107.968)" fill="#f5f5f5"/><path d="M14.881,138.657l.116.349.368,0a.05.05,0,0,1,.029.09l-.3.219.111.351a.05.05,0,0,1-.076.055l-.3-.214-.3.214a.05.05,0,0,1-.076-.055l.111-.351-.3-.219a.05.05,0,0,1,.029-.09l.368,0,.116-.349A.05.05,0,0,1,14.881,138.657Z" transform="translate(-14.253 -136.795)" fill="#f5f5f5"/><path d="M14.881,169.311l.116.349.368,0a.05.05,0,0,1,.029.09l-.3.219.111.351a.05.05,0,0,1-.076.055l-.3-.214-.3.214a.05.05,0,0,1-.076-.055l.111-.351-.3-.219a.05.05,0,0,1,.029-.09l.368,0,.116-.349A.05.05,0,0,1,14.881,169.311Z" transform="translate(-14.253 -165.622)" fill="#f5f5f5"/><path d="M14.881,199.965l.116.349.368,0a.05.05,0,0,1,.029.09l-.3.219.111.351a.05.05,0,0,1-.076.055l-.3-.214-.3.214a.05.05,0,0,1-.076-.055l.111-.351-.3-.219a.05.05,0,0,1,.029-.09l.368,0,.116-.349A.05.05,0,0,1,14.881,199.965Z" transform="translate(-14.253 -194.448)" fill="#f5f5f5"/><path d="M14.881,230.62l.116.349.368,0a.05.05,0,0,1,.029.09l-.3.219.111.351a.05.05,0,0,1-.076.055l-.3-.214-.3.214a.05.05,0,0,1-.076-.055l.111-.351-.3-.219a.05.05,0,0,1,.029-.09l.368,0,.116-.349A.05.05,0,0,1,14.881,230.62Z" transform="translate(-14.253 -223.275)" fill="#f5f5f5"/><path d="M38.674,123.031l.117.349.368,0a.05.05,0,0,1,.029.09l-.3.219.111.351a.05.05,0,0,1-.076.055l-.3-.214-.3.214a.05.05,0,0,1-.076-.055l.111-.351-.3-.219a.05.05,0,0,1,.029-.09l.368,0,.117-.349A.05.05,0,0,1,38.674,123.031Z" transform="translate(-36.627 -122.101)" fill="#f5f5f5"/><path d="M38.674,153.686l.117.349.368,0a.05.05,0,0,1,.029.09l-.3.219L39,154.7a.05.05,0,0,1-.076.055l-.3-.214-.3.214a.05.05,0,0,1-.076-.055l.111-.351-.3-.219a.05.05,0,0,1,.029-.09l.368,0,.117-.349A.05.05,0,0,1,38.674,153.686Z" transform="translate(-36.627 -150.928)" fill="#f5f5f5"/><path d="M38.674,184.34l.117.349.368,0a.05.05,0,0,1,.029.09l-.3.219.111.351a.05.05,0,0,1-.076.055l-.3-.214-.3.214a.05.05,0,0,1-.076-.055l.111-.351-.3-.219a.05.05,0,0,1,.029-.09l.368,0,.117-.349A.05.05,0,0,1,38.674,184.34Z" transform="translate(-36.627 -179.754)" fill="#f5f5f5"/><path d="M38.674,214.994l.117.349.368,0a.05.05,0,0,1,.029.09l-.3.219.111.351a.05.05,0,0,1-.076.055l-.3-.214-.3.214a.05.05,0,0,1-.076-.055l.111-.351-.3-.219a.05.05,0,0,1,.029-.09l.368,0,.117-.349A.05.05,0,0,1,38.674,214.994Z" transform="translate(-36.627 -208.581)" fill="#f5f5f5"/><path d="M62.467,108l.117.349.368,0a.05.05,0,0,1,.029.09l-.3.219.111.351a.05.05,0,0,1-.076.055l-.3-.214-.3.214a.05.05,0,0,1-.076-.055l.111-.351-.3-.219a.05.05,0,0,1,.029-.09l.368,0,.117-.349A.05.05,0,0,1,62.467,108Z" transform="translate(-59.001 -107.968)" fill="#f5f5f5"/><path d="M62.467,138.656l.117.349.368,0a.05.05,0,0,1,.029.09l-.3.219.111.351a.05.05,0,0,1-.076.055l-.3-.214-.3.214a.05.05,0,0,1-.076-.055l.111-.351-.3-.219a.05.05,0,0,1,.029-.09l.368,0,.117-.349A.05.05,0,0,1,62.467,138.656Z" transform="translate(-59.001 -136.795)" fill="#f5f5f5"/><path d="M62.467,169.311l.117.349.368,0a.05.05,0,0,1,.029.09l-.3.219.111.351a.05.05,0,0,1-.076.055l-.3-.214-.3.214a.05.05,0,0,1-.076-.055l.111-.351-.3-.219a.05.05,0,0,1,.029-.09l.368,0,.117-.349A.05.05,0,0,1,62.467,169.311Z" transform="translate(-59.001 -165.621)" fill="#f5f5f5"/><path d="M62.467,199.965l.117.349.368,0a.05.05,0,0,1,.029.09l-.3.219.111.351a.05.05,0,0,1-.076.055l-.3-.214-.3.214a.05.05,0,0,1-.076-.055l.111-.351-.3-.219a.05.05,0,0,1,.029-.09l.368,0,.117-.349A.05.05,0,0,1,62.467,199.965Z" transform="translate(-59.001 -194.448)" fill="#f5f5f5"/><path d="M62.467,230.619l.117.349.368,0a.05.05,0,0,1,.029.09l-.3.219.111.351a.05.05,0,0,1-.076.055l-.3-.214-.3.214a.05.05,0,0,1-.076-.055l.111-.351-.3-.219a.05.05,0,0,1,.029-.09l.368,0,.117-.349A.05.05,0,0,1,62.467,230.619Z" transform="translate(-59.001 -223.275)" fill="#f5f5f5"/><path d="M86.261,123.031l.117.349.368,0a.05.05,0,0,1,.029.09l-.3.219.111.351a.05.05,0,0,1-.076.055l-.3-.214-.3.214a.05.05,0,0,1-.076-.055l.111-.351-.3-.219a.05.05,0,0,1,.029-.09l.368,0,.117-.349A.05.05,0,0,1,86.261,123.031Z" transform="translate(-81.377 -122.101)" fill="#f5f5f5"/><path d="M86.261,153.686l.117.349.368,0a.05.05,0,0,1,.029.09l-.3.219.111.351a.05.05,0,0,1-.076.055l-.3-.214-.3.214a.05.05,0,0,1-.076-.055l.111-.351-.3-.219a.05.05,0,0,1,.029-.09l.368,0,.117-.349A.05.05,0,0,1,86.261,153.686Z" transform="translate(-81.377 -150.928)" fill="#f5f5f5"/><path d="M86.261,184.34l.117.349.368,0a.05.05,0,0,1,.029.09l-.3.219.111.351a.05.05,0,0,1-.076.055l-.3-.214-.3.214a.05.05,0,0,1-.076-.055l.111-.351-.3-.219a.05.05,0,0,1,.029-.09l.368,0,.117-.349A.05.05,0,0,1,86.261,184.34Z" transform="translate(-81.377 -179.754)" fill="#f5f5f5"/><path d="M86.261,214.994l.117.349.368,0a.05.05,0,0,1,.029.09l-.3.219.111.351a.05.05,0,0,1-.076.055l-.3-.214-.3.214a.05.05,0,0,1-.076-.055l.111-.351-.3-.219a.05.05,0,0,1,.029-.09l.368,0,.117-.349A.05.05,0,0,1,86.261,214.994Z" transform="translate(-81.377 -208.581)" fill="#f5f5f5"/><path d="M110.053,108l.117.349.368,0a.05.05,0,0,1,.029.09l-.3.219.111.351a.05.05,0,0,1-.076.055l-.3-.214-.3.214a.05.05,0,0,1-.076-.055l.111-.351-.3-.219a.05.05,0,0,1,.029-.09l.368,0,.117-.349A.05.05,0,0,1,110.053,108Z" transform="translate(-103.75 -107.968)" fill="#f5f5f5"/><path d="M110.053,138.656l.117.349.368,0a.05.05,0,0,1,.029.09l-.3.219.111.351a.05.05,0,0,1-.076.055l-.3-.214-.3.214a.05.05,0,0,1-.076-.055l.111-.351-.3-.219a.05.05,0,0,1,.029-.09l.368,0,.117-.349A.05.05,0,0,1,110.053,138.656Z" transform="translate(-103.75 -136.795)" fill="#f5f5f5"/><path d="M110.053,169.311l.117.349.368,0a.05.05,0,0,1,.029.09l-.3.219.111.351a.05.05,0,0,1-.076.055l-.3-.214-.3.214a.05.05,0,0,1-.076-.055l.111-.351-.3-.219a.05.05,0,0,1,.029-.09l.368,0,.117-.349A.05.05,0,0,1,110.053,169.311Z" transform="translate(-103.75 -165.621)" fill="#f5f5f5"/><path d="M110.053,199.965l.117.349.368,0a.05.05,0,0,1,.029.09l-.3.219.111.351a.05.05,0,0,1-.076.055l-.3-.214-.3.214a.05.05,0,0,1-.076-.055l.111-.351-.3-.219a.05.05,0,0,1,.029-.09l.368,0,.117-.349A.05.05,0,0,1,110.053,199.965Z" transform="translate(-103.75 -194.448)" fill="#f5f5f5"/><path d="M110.053,230.619l.117.349.368,0a.05.05,0,0,1,.029.09l-.3.219.111.351a.05.05,0,0,1-.076.055l-.3-.214-.3.214a.05.05,0,0,1-.076-.055l.111-.351-.3-.219a.05.05,0,0,1,.029-.09l.368,0,.117-.349A.05.05,0,0,1,110.053,230.619Z" transform="translate(-103.75 -223.275)" fill="#f5f5f5"/><path d="M133.847,123.031l.117.349.368,0a.05.05,0,0,1,.029.09l-.3.219.111.351a.05.05,0,0,1-.076.055l-.3-.214-.3.214a.05.05,0,0,1-.076-.055l.111-.351-.3-.219a.05.05,0,0,1,.029-.09l.368,0,.117-.349A.05.05,0,0,1,133.847,123.031Z" transform="translate(-126.126 -122.101)" fill="#f5f5f5"/><path d="M133.847,153.686l.117.349.368,0a.05.05,0,0,1,.029.09l-.3.219.111.351a.05.05,0,0,1-.076.055l-.3-.214-.3.214a.05.05,0,0,1-.076-.055l.111-.351-.3-.219a.05.05,0,0,1,.029-.09l.368,0,.117-.349A.05.05,0,0,1,133.847,153.686Z" transform="translate(-126.126 -150.928)" fill="#f5f5f5"/><path d="M133.847,184.34l.117.349.368,0a.05.05,0,0,1,.029.09l-.3.219.111.351a.05.05,0,0,1-.076.055l-.3-.214-.3.214a.05.05,0,0,1-.076-.055l.111-.351-.3-.219a.05.05,0,0,1,.029-.09l.368,0,.117-.349A.05.05,0,0,1,133.847,184.34Z" transform="translate(-126.126 -179.754)" fill="#f5f5f5"/><path d="M133.847,214.994l.117.349.368,0a.05.05,0,0,1,.029.09l-.3.219.111.351a.05.05,0,0,1-.076.055l-.3-.214-.3.214a.05.05,0,0,1-.076-.055l.111-.351-.3-.219a.05.05,0,0,1,.029-.09l.368,0,.117-.349A.05.05,0,0,1,133.847,214.994Z" transform="translate(-126.126 -208.581)" fill="#f5f5f5"/><path d="M157.641,108l.117.349.368,0a.05.05,0,0,1,.029.09l-.3.219.111.351a.05.05,0,0,1-.076.055l-.3-.214-.3.214a.05.05,0,0,1-.076-.055l.111-.351-.3-.219a.05.05,0,0,1,.029-.09l.368,0,.117-.349A.05.05,0,0,1,157.641,108Z" transform="translate(-148.501 -107.968)" fill="#f5f5f5"/><path d="M157.641,138.656l.117.349.368,0a.05.05,0,0,1,.029.09l-.3.219.111.351a.05.05,0,0,1-.076.055l-.3-.214-.3.214a.05.05,0,0,1-.076-.055l.111-.351-.3-.219a.05.05,0,0,1,.029-.09l.368,0,.117-.349A.05.05,0,0,1,157.641,138.656Z" transform="translate(-148.501 -136.795)" fill="#f5f5f5"/><path d="M157.641,169.311l.117.349.368,0a.05.05,0,0,1,.029.09l-.3.219.111.351a.05.05,0,0,1-.076.055l-.3-.214-.3.214a.05.05,0,0,1-.076-.055l.111-.351-.3-.219a.05.05,0,0,1,.029-.09l.368,0,.117-.349A.05.05,0,0,1,157.641,169.311Z" transform="translate(-148.501 -165.621)" fill="#f5f5f5"/><path d="M157.641,199.965l.117.349.368,0a.05.05,0,0,1,.029.09l-.3.219.111.351a.05.05,0,0,1-.076.055l-.3-.214-.3.214a.05.05,0,0,1-.076-.055l.111-.351-.3-.219a.05.05,0,0,1,.029-.09l.368,0,.117-.349A.05.05,0,0,1,157.641,199.965Z" transform="translate(-148.501 -194.448)" fill="#f5f5f5"/><path d="M157.641,230.619l.117.349.368,0a.05.05,0,0,1,.029.09l-.3.219.111.351a.05.05,0,0,1-.076.055l-.3-.214-.3.214a.05.05,0,0,1-.076-.055l.111-.351-.3-.219a.05.05,0,0,1,.029-.09l.368,0,.117-.349A.05.05,0,0,1,157.641,230.619Z" transform="translate(-148.501 -223.275)" fill="#f5f5f5"/><path d="M181.434,123.031l.117.349.368,0a.05.05,0,0,1,.029.09l-.3.219.111.351a.05.05,0,0,1-.076.055l-.3-.214-.3.214a.05.05,0,0,1-.076-.055l.111-.351-.3-.219a.05.05,0,0,1,.029-.09l.368,0,.117-.349A.05.05,0,0,1,181.434,123.031Z" transform="translate(-170.876 -122.101)" fill="#f5f5f5"/><path d="M181.434,153.686l.117.349.368,0a.05.05,0,0,1,.029.09l-.3.219.111.351a.05.05,0,0,1-.076.055l-.3-.214-.3.214a.05.05,0,0,1-.076-.055l.111-.351-.3-.219a.05.05,0,0,1,.029-.09l.368,0,.117-.349A.05.05,0,0,1,181.434,153.686Z" transform="translate(-170.876 -150.928)" fill="#f5f5f5"/><path d="M181.434,184.34l.117.349.368,0a.05.05,0,0,1,.029.09l-.3.219.111.351a.05.05,0,0,1-.076.055l-.3-.214-.3.214a.05.05,0,0,1-.076-.055l.111-.351-.3-.219a.05.05,0,0,1,.029-.09l.368,0,.117-.349A.05.05,0,0,1,181.434,184.34Z" transform="translate(-170.876 -179.754)" fill="#f5f5f5"/><path d="M181.434,214.994l.117.349.368,0a.05.05,0,0,1,.029.09l-.3.219.111.351a.05.05,0,0,1-.076.055l-.3-.214-.3.214a.05.05,0,0,1-.076-.055l.111-.351-.3-.219a.05.05,0,0,1,.029-.09l.368,0,.117-.349A.05.05,0,0,1,181.434,214.994Z" transform="translate(-170.876 -208.581)" fill="#f5f5f5"/><path d="M205.228,108l.116.349.368,0a.05.05,0,0,1,.029.09l-.3.219.111.351a.05.05,0,0,1-.076.055l-.3-.214-.3.214a.05.05,0,0,1-.076-.055l.111-.351-.3-.219a.05.05,0,0,1,.029-.09l.368,0,.116-.349A.05.05,0,0,1,205.228,108Z" transform="translate(-193.251 -107.968)" fill="#f5f5f5"/><path d="M205.228,138.656l.116.349.368,0a.05.05,0,0,1,.029.09l-.3.219.111.351a.05.05,0,0,1-.076.055l-.3-.214-.3.214a.05.05,0,0,1-.076-.055l.111-.351-.3-.219a.05.05,0,0,1,.029-.09l.368,0,.116-.349A.05.05,0,0,1,205.228,138.656Z" transform="translate(-193.251 -136.795)" fill="#f5f5f5"/><path d="M205.228,169.311l.116.349.368,0a.05.05,0,0,1,.029.09l-.3.219.111.351a.05.05,0,0,1-.076.055l-.3-.214-.3.214a.05.05,0,0,1-.076-.055l.111-.351-.3-.219a.05.05,0,0,1,.029-.09l.368,0,.116-.349A.05.05,0,0,1,205.228,169.311Z" transform="translate(-193.251 -165.621)" fill="#f5f5f5"/><path d="M205.228,199.965l.116.349.368,0a.05.05,0,0,1,.029.09l-.3.219.111.351a.05.05,0,0,1-.076.055l-.3-.214-.3.214a.05.05,0,0,1-.076-.055l.111-.351-.3-.219a.05.05,0,0,1,.029-.09l.368,0,.116-.349A.05.05,0,0,1,205.228,199.965Z" transform="translate(-193.251 -194.448)" fill="#f5f5f5"/><path d="M205.228,230.619l.116.349.368,0a.05.05,0,0,1,.029.09l-.3.219.111.351a.05.05,0,0,1-.076.055l-.3-.214-.3.214a.05.05,0,0,1-.076-.055l.111-.351-.3-.219a.05.05,0,0,1,.029-.09l.368,0,.116-.349A.05.05,0,0,1,205.228,230.619Z" transform="translate(-193.251 -223.275)" fill="#f5f5f5"/></g></g></svg>